<svg xmlns="http://www.w3.org/2000/svg" xmlns:xlink="http://www.w3.org/1999/xlink" width="28.874" height="30.863" viewBox="0 0 28.874 30.863">
  <defs>
    <clipPath id="clip-path">
      <rect id="Rectangle_226" data-name="Rectangle 226" width="28.874" height="30.863" transform="translate(0 0)" fill="none"/>
    </clipPath>
  </defs>
  <g id="Group_201" data-name="Group 201" transform="translate(0 0)" clip-path="url(#clip-path)">
    <path id="Path_695" data-name="Path 695" d="M26.8,17.264c-1.761-1.511-4.38-2.155-7.786-1.92a8.4,8.4,0,1,0-9.771-.233c-2.46-.243-7.642-.062-9.214,5.4A.663.663,0,0,0,0,20.684v9.541a.638.638,0,0,0,.637.638h27.6a.638.638,0,0,0,.637-.638V21.138c0-.012,0-.024,0-.036A5.887,5.887,0,0,0,26.8,17.264M7.085,8.4a7.2,7.2,0,1,1,7.235,7.2h-.069A7.209,7.209,0,0,1,7.085,8.4M14.16,18.16h.616l.911,1.881-1.246,2.422-.93-1.827ZM13.4,16.88a.43.43,0,0,1,.429-.429h1.211a.429.429,0,0,1,0,.858H13.832a.429.429,0,0,1-.429-.429M15.644,18a1.274,1.274,0,0,0,.678-1.122,1.248,1.248,0,0,0-.046-.319,8.225,8.225,0,0,0,1.46-.5l-1.563,3.038Zm-2.334.044L12.931,19.5l-1.654-3.253a8.154,8.154,0,0,0,1.3.384,1.258,1.258,0,0,0-.025.254,1.28,1.28,0,0,0,.757,1.166M27.6,29.587H1.275V20.776c1.6-5.328,7.346-4.546,8.7-4.283l3.9,7.66a.634.634,0,0,0,.566.349h0A.638.638,0,0,0,15,24.156l3.872-7.524c3.154-.253,5.53.279,7.065,1.581A4.637,4.637,0,0,1,27.6,21.161Z" fill="#272525"/>
  </g>
</svg>
