<svg xmlns="http://www.w3.org/2000/svg" xmlns:xlink="http://www.w3.org/1999/xlink" width="19.428" height="32.326" viewBox="0 0 19.428 32.326">
  <defs>
    <clipPath id="clip-path">
      <rect id="Rectangle_230" data-name="Rectangle 230" width="19.428" height="32.326" transform="translate(0 0)" fill="none"/>
    </clipPath>
  </defs>
  <g id="Group_213" data-name="Group 213" transform="translate(0 0)">
    <g id="Group_212" data-name="Group 212" clip-path="url(#clip-path)">
      <path id="Path_716" data-name="Path 716" d="M19.152,12.011a9.713,9.713,0,1,0-18.876,0,14.48,14.48,0,0,0,1.06,3.779c.953,2.005,4.971,8.624,6.815,11.639-2.494.318-3.649,1.389-3.649,2.4,0,1.2,1.631,2.5,5.212,2.5s5.213-1.3,5.213-2.5c0-1.011-1.158-2.082-3.651-2.4,1.844-3.015,5.861-9.634,6.815-11.639a14.515,14.515,0,0,0,1.061-3.779M13.424,29.829c-.1.284-1.356,1-3.71,1-2.384,0-3.638-.73-3.713-.987.067-.249,1.09-.861,3.025-.984l.049.08a.751.751,0,0,0,1.277,0c.008-.015.026-.043.048-.08,1.911.121,2.933.719,3.024.974M2.69,15.145a13.306,13.306,0,0,1-.938-3.405c0-.019-.008-.038-.012-.058a8.213,8.213,0,1,1,15.948,0c0,.019-.009.039-.011.058a13.338,13.338,0,0,1-.94,3.405c-.964,2.024-5.36,9.248-7.023,11.962-1.663-2.714-6.06-9.938-7.024-11.962" fill="#272525"/>
      <path id="Path_717" data-name="Path 717" d="M9.714,4.222a5.213,5.213,0,1,0,5.212,5.213A5.219,5.219,0,0,0,9.714,4.222M6,9.435a3.712,3.712,0,1,1,3.713,3.712A3.717,3.717,0,0,1,6,9.435" fill="#272525"/>
    </g>
  </g>
</svg>
