<svg xmlns="http://www.w3.org/2000/svg" width="50.2" height="47.46" viewBox="0 0 50.2 47.46">
  <g id="Group_76" data-name="Group 76" transform="translate(-4747.21 -2682)">
    <path id="Path_673" data-name="Path 673" d="M448.986,27.855a3.207,3.207,0,0,1-2.007,2.3c-.118.043-.2.338-.2.516-.012,3.332-.009,6.665-.009,10,0,1.617,0,3.235,0,4.852a1.728,1.728,0,0,1-1.926,1.943q-20.95,0-41.9,0a1.725,1.725,0,0,1-1.914-1.7.694.694,0,0,1,.6-.726.627.627,0,0,1,.793.482c.087.473.362.484.735.484q17.349-.009,34.7,0c2.287,0,4.574-.011,6.861.009.449,0,.6-.127.594-.581-.025-1.222-.008-2.445-.008-3.7h-42.81c0,.26.014.5,0,.742a.733.733,0,1,1-1.461-.011c-.009-.163,0-.327,0-.49,0-3.757,0-7.514.007-11.272a.568.568,0,0,0-.426-.633,2.68,2.68,0,0,1-1.787-2.575c-.037-3.005-.03-6.012,0-9.017a3.108,3.108,0,0,1,3.076-3.065c2.091-.031,4.182-.01,6.273-.012h.558a4.857,4.857,0,0,1,4.673-4.963,6.3,6.3,0,0,1,.1-3.988,1.632,1.632,0,0,1,2-1.223c.914.186,1.8.534,2.729.822.085-.2.215-.532.358-.855A11.727,11.727,0,0,1,422.044.693a2.823,2.823,0,0,1,3.692,0,11.764,11.764,0,0,1,3.645,4.893c.078.194.155.388.18.45.962-.29,1.877-.631,2.821-.83a1.606,1.606,0,0,1,1.879,1.132,6.33,6.33,0,0,1,.119,4.127,4.779,4.779,0,0,1,3.332,1.476,4.669,4.669,0,0,1,1.3,3.427c.208.009.38.024.553.024,1.846,0,3.694.061,5.537-.015a3.428,3.428,0,0,1,3.879,2.681ZM431.059,15.392c.723,0,1.374-.01,2.026,0a.672.672,0,0,1,.711.662.705.705,0,0,1-.643.784,3.6,3.6,0,0,1-.538.016H402.477c-.2,0-.392,0-.588.007a1.656,1.656,0,0,0-1.61,1.6c-.021,2.989-.015,5.979,0,8.968a1.361,1.361,0,0,0,.949,1.3,1.475,1.475,0,0,0,1.994-1.377,2.988,2.988,0,0,1,2.05-2.82A2.939,2.939,0,0,1,409.1,27.2c.055,1.5.015,3.005.024,4.508a3.653,3.653,0,0,0,.072.777,1.493,1.493,0,0,0,1.324,1.133,1.453,1.453,0,0,0,1.455-.949,2.841,2.841,0,0,0,.111-.867c.009-2.172,0-4.345.009-6.518a4.537,4.537,0,0,1,.1-1.068,2.939,2.939,0,0,1,5.8.605,1.49,1.49,0,0,0,1.481,1.556,1.51,1.51,0,0,0,1.48-1.567,2.924,2.924,0,0,1,3-2.851,2.973,2.973,0,0,1,2.881,2.943c.013.637-.025,1.276.015,1.91A3.773,3.773,0,0,0,427.1,28a1.3,1.3,0,0,0,1.466.806,1.466,1.466,0,0,0,1.216-1.3c.017-.162.018-.327.04-.488a2.918,2.918,0,0,1,3.079-2.611,2.967,2.967,0,0,1,2.782,2.835c.012.2.012.392.013.588,0,1.307-.006,2.614.005,3.92a2.956,2.956,0,0,0,.109.868,1.463,1.463,0,0,0,1.569.987,1.5,1.5,0,0,0,1.283-1.6c.008-2.973,0-5.946,0-8.919,0-.245,0-.491.015-.735a2.943,2.943,0,0,1,5.88.26c.017,1.584-.009,3.169.016,4.753a1.484,1.484,0,0,0,1.482,1.459,1.457,1.457,0,0,0,1.449-1.434q.023-4.459,0-8.919a1.651,1.651,0,0,0-1.269-1.56,3.184,3.184,0,0,0-.73-.053q-4.509-.005-9.017,0c-.566,0-.912-.292-.914-.738s.339-.721.911-.729c.338,0,.676,0,1.043,0a3.231,3.231,0,0,0-4.939-2.943,3.191,3.191,0,0,0-1.532,2.947m14.21,22.179H416.74a4.09,4.09,0,0,1-.538-.012.724.724,0,0,1-.082-1.426,2.44,2.44,0,0,1,.584-.031H445.26v-3.22c-1.7,0-3.36-.006-5.022.013-.1,0-.245.179-.3.3a2.862,2.862,0,0,1-2.733,1.882,2.8,2.8,0,0,1-2.736-1.861.493.493,0,0,0-.546-.346q-10.021.009-20.042,0a.487.487,0,0,0-.546.343,2.915,2.915,0,0,1-5.43.021.521.521,0,0,0-.583-.366c-1.29.014-2.581.006-3.871.006h-.928V36.1h10.164a2.165,2.165,0,0,1,.488.023.726.726,0,0,1-.08,1.438,4.841,4.841,0,0,1-.49.009H402.518v2.616h42.752Zm-11.047-6.187c0-1.362.017-2.667-.006-3.972a1.48,1.48,0,1,0-2.959-.05,4.242,4.242,0,0,1-.182,1,2.93,2.93,0,0,1-2.988,1.925,2.872,2.872,0,0,1-2.607-2.524,25.765,25.765,0,0,1-.114-2.784,1.506,1.506,0,0,0-1.69-1.539A1.489,1.489,0,0,0,422.413,25a2.973,2.973,0,0,1-2.582,2.831,2.928,2.928,0,0,1-3.125-1.922,4.85,4.85,0,0,1-.185-1.053,1.491,1.491,0,0,0-1.662-1.417,1.516,1.516,0,0,0-1.3,1.639c-.012,1.993,0,3.986,0,5.978a2.158,2.158,0,0,0,.05.326ZM419.057,10.466a13.631,13.631,0,0,1,2.644.224,13.1,13.1,0,0,1,2.319,1.172,3.952,3.952,0,0,1,2.116-1.207,24.17,24.17,0,0,1,2.589-.172,4.357,4.357,0,0,0,.043-.547,10.39,10.39,0,0,0-3.828-8,1.414,1.414,0,0,0-2.1.012,10.242,10.242,0,0,0-3.524,5.625,7.874,7.874,0,0,0-.254,2.893m26.215,20.918c.009-.177.02-.305.022-.434a1.681,1.681,0,0,0-.01-.487.576.576,0,0,0-.254-.344,3.061,3.061,0,0,1-1.941-3.1c.02-1.452.012-2.905,0-4.358a1.483,1.483,0,0,0-1.695-1.57,1.529,1.529,0,0,0-1.258,1.671q-.01,4.137,0,8.274c0,.109.02.218.032.348Zm-37.629,0c0-1.362.018-2.7-.006-4.031a1.471,1.471,0,0,0-2.941-.022,2.964,2.964,0,0,1-1.944,2.8.455.455,0,0,0-.25.3,9.226,9.226,0,0,0-.012.962Zm7.978-16.014a16.644,16.644,0,0,1,.359-1.718.625.625,0,0,0-.181-.726,3.248,3.248,0,0,0-5.412,1.29,7.926,7.926,0,0,0-.176,1.155Zm13.87-.01c.134-.624.277-1.192.37-1.767A.8.8,0,0,0,429.74,13a3.134,3.134,0,0,0-2.826-1.024,3.187,3.187,0,0,0-2.752,3.38Zm-6.94.008c.13-.613.274-1.194.367-1.784a.789.789,0,0,0-.13-.587,3.069,3.069,0,0,0-3.2-.928,3.122,3.122,0,0,0-2.337,2.447,5.459,5.459,0,0,0-.077.852ZM417.024,11.9c.139-.119.344-.277.528-.457.071-.069.152-.2.133-.276a8.755,8.755,0,0,1,.023-3.155.574.574,0,0,0-.176-.446,4.536,4.536,0,0,0-2.178-.916.389.389,0,0,0-.5.317A4.742,4.742,0,0,0,415,10.5a.758.758,0,0,0,.27.319c.57.367,1.151.716,1.758,1.09m13.742-.006c.611-.375,1.193-.726,1.766-1.091a.679.679,0,0,0,.242-.284,4.583,4.583,0,0,0,.127-3.57c-.051-.136-.333-.313-.445-.277-.69.224-1.364.5-2.04.768-.352.14-.358.413-.341.758.046.955.028,1.913.046,2.87a.6.6,0,0,0,.117.37,5.307,5.307,0,0,0,.528.456" transform="translate(4348.424 2681.996)"/>
    <path id="Path_674" data-name="Path 674" d="M537.638,17.546a.732.732,0,0,1-1.464.023.732.732,0,1,1,1.464-.023" transform="translate(4235.409 2668.161)"/>
    <path id="Path_675" data-name="Path 675" d="M529.6,32.875a.743.743,0,0,1-.762.72.732.732,0,0,1,.024-1.464.741.741,0,0,1,.737.744" transform="translate(4242.023 2655.569)"/>
    <path id="Path_676" data-name="Path 676" d="M544.931,33.6a.732.732,0,1,1,.011-1.464.732.732,0,0,1-.011,1.464" transform="translate(4228.817 2655.567)"/>
    <path id="Path_677" data-name="Path 677" d="M521.509,48.223a.729.729,0,0,1-.716.72.752.752,0,0,1-.749-.747.728.728,0,0,1,.776-.707.7.7,0,0,1,.689.734" transform="translate(4248.677 2642.935)"/>
    <path id="Path_678" data-name="Path 678" d="M553.048,47.489a.725.725,0,0,1,.716.718.751.751,0,0,1-.76.735.731.731,0,0,1-.7-.779.7.7,0,0,1,.748-.674" transform="translate(4222.144 2642.936)"/>
    <path id="Path_679" data-name="Path 679" d="M536.891,47.49a.711.711,0,0,1,.748.729.732.732,0,1,1-1.464-.018.706.706,0,0,1,.716-.711" transform="translate(4235.408 2642.934)"/>
  </g>
</svg>
