<svg xmlns="http://www.w3.org/2000/svg" xmlns:xlink="http://www.w3.org/1999/xlink" width="31.408" height="31.408" viewBox="0 0 31.408 31.408">
  <defs>
    <clipPath id="clip-path">
      <rect id="Rectangle_229" data-name="Rectangle 229" width="31.408" height="31.408" transform="translate(0 0)" fill="none"/>
    </clipPath>
  </defs>
  <g id="Group_211" data-name="Group 211" transform="translate(0 0)">
    <g id="Group_210" data-name="Group 210" clip-path="url(#clip-path)">
      <path id="Path_714" data-name="Path 714" d="M26.085,3.925A15.722,15.722,0,0,0,11.755.5c-.4.105-.815.231-1.253.385h0A15.668,15.668,0,0,0,6.628,2.893c-.312.221-.616.454-.9.691a15.7,15.7,0,0,0,2.5,25.933c.246.132.518.269.833.416a15.718,15.718,0,0,0,11.169.809.6.6,0,0,0,.085.011.574.574,0,0,0,.177-.028c.232-.073.461-.15.689-.234a15.752,15.752,0,0,0,6.485-4.5c.185-.214.363-.431.528-.645a.591.591,0,0,0,.116-.284A15.682,15.682,0,0,0,26.966,4.765c-.281-.29-.577-.572-.881-.84M15.7,1.173a14.511,14.511,0,0,1,9.553,3.585,1.928,1.928,0,0,1-.585-.045c-.373-.1-.732-.209-1.129-.331A7.867,7.867,0,0,0,18.6,3.988a10.181,10.181,0,0,0-1.2.479l-.029.013a5.746,5.746,0,0,1-1.245.458,2.118,2.118,0,0,1-.406.041,2.594,2.594,0,0,1-1.489-.556,5,5,0,0,1-1.284-1.561,6.577,6.577,0,0,0-.9-1.228A14.617,14.617,0,0,1,15.7,1.173M8.869,28.53l-.083-.045a14.528,14.528,0,0,1-2.315-24c.215-.179.442-.354.676-.524C8,4,8.269,4.033,8.479,5.3a3.75,3.75,0,0,1-.006.934,3.235,3.235,0,0,0,.073,1.361,2.317,2.317,0,0,0,.6.86,1.39,1.39,0,0,1,.51.85c.074,1.159-1.184,1.476-2.838,1.77-.148.026-.3.052-.438.079a6.245,6.245,0,0,0-1.149.3,2.343,2.343,0,0,0-1.522,1.428c-.328,1.073.4,2.239,1.071,3.029a5.644,5.644,0,0,1,1.287,4.255,7.72,7.72,0,0,1-.28.944c-.342.994-.731,2.121.467,3.122a5.774,5.774,0,0,0,1.122.714,5.128,5.128,0,0,1,.527.3,1.856,1.856,0,0,1,.787,1.175,5.6,5.6,0,0,1,.182,2.11m17.908-3.306a14.586,14.586,0,0,1-6,4.167l-.225.08a10.948,10.948,0,0,0-5.343-4.211,2.644,2.644,0,0,1-1.665-1.188c-.141-.179-.3-.382-.5-.612A5.24,5.24,0,0,0,11,22.121c-.171-.076-.349-.156-.533-.243a2.42,2.42,0,0,1-1.447-2.869C9.411,17,11.375,16.3,13.062,16.3c.1,0,.2,0,.3.008a9.213,9.213,0,0,1,1.216.161,3.018,3.018,0,0,0,3.1-.734,3.642,3.642,0,0,0,1.1-2.357,5.842,5.842,0,0,1,.351-1.37,3.027,3.027,0,0,1,.83-1.148.9.9,0,0,1,.786-.147,1.3,1.3,0,0,0,.713-.034,2.462,2.462,0,0,0,1.058-.942,1.9,1.9,0,0,1,1.573-.986c1.049-.05,3.018.559,3.6,1.6a1.249,1.249,0,0,1-.14,1.409,5.046,5.046,0,0,1-.849.91l0,0a3.1,3.1,0,0,0-1.228,2.017,1.945,1.945,0,0,0,.644,1.9,2.55,2.55,0,0,1,.63.914,2.829,2.829,0,0,1-.219,1.9,3.866,3.866,0,0,0-.309,1.936c.033.18.053.4.075.627a24.422,24.422,0,0,0,.788,2.9c-.1.119-.2.239-.3.357m1.13-1.636a17.231,17.231,0,0,1-.453-1.733c-.023-.245-.046-.5-.088-.728a3.029,3.029,0,0,1,.267-1.349,3.808,3.808,0,0,0,.2-2.689,3.654,3.654,0,0,0-.878-1.309c-.327-.345-.406-.427-.333-.923a1.958,1.958,0,0,1,.852-1.315l0,0,.2-.185c.1-.091.2-.188.3-.3.088-.092.178-.19.267-.3s.174-.22.259-.343a2.4,2.4,0,0,0,.195-2.645A3.531,3.531,0,0,0,27.494,8.56a6.515,6.515,0,0,0-3.528-1.022,3.042,3.042,0,0,0-2.454,1.455A1.677,1.677,0,0,1,21,9.531c-.04,0-.11-.014-.145-.02a2.061,2.061,0,0,0-1.65.36,4.108,4.108,0,0,0-1.219,1.64,6.986,6.986,0,0,0-.428,1.629,2.521,2.521,0,0,1-.735,1.692c-.741.684-1.139.613-2.1.441A10.258,10.258,0,0,0,13.36,15.1c-2.217-.111-5,.78-5.552,3.651A3.539,3.539,0,0,0,9.361,22.59a4.456,4.456,0,0,0,.608.347c.192.092.378.175.557.255a7.3,7.3,0,0,1,1.042.531,2.827,2.827,0,0,1,.527.469c.181.206.33.4.46.563a4.292,4.292,0,0,0,1.131,1.111,4.216,4.216,0,0,0,1.206.523,6.255,6.255,0,0,1,1.676.792A11.627,11.627,0,0,1,19.3,29.787a14.572,14.572,0,0,1-3.592.448A14.386,14.386,0,0,1,9.979,29.06c.021-.122.039-.244.053-.366v-.019c.015-.126.024-.252.031-.378,0-.044,0-.088,0-.132,0-.089.006-.179,0-.268,0-.051,0-.1,0-.154q0-.125-.012-.249c0-.053-.008-.107-.014-.16-.007-.083-.017-.167-.028-.251-.007-.052-.014-.1-.022-.156-.014-.09-.031-.181-.049-.273-.008-.045-.016-.089-.026-.134-.029-.136-.062-.272-.1-.409a3.17,3.17,0,0,0-1.9-2.206A4.612,4.612,0,0,1,7,23.331c-.522-.436-.484-.758-.11-1.843a8.669,8.669,0,0,0,.32-1.093,6.724,6.724,0,0,0-1.543-5.243c-.659-.778-.974-1.5-.843-1.928a.645.645,0,0,1,.039-.1.872.872,0,0,1,.225-.264,1.954,1.954,0,0,1,.407-.25c.053-.025.11-.05.17-.074a7.92,7.92,0,0,1,1.352-.312c1.477-.263,3.95-.7,3.8-3a2.476,2.476,0,0,0-.832-1.586,1.489,1.489,0,0,1-.332-.421,2.343,2.343,0,0,1-.018-.89,4.742,4.742,0,0,0-.005-1.225c-.022-.132-.047-.255-.073-.373-.009-.038-.018-.072-.028-.109-.019-.077-.038-.153-.06-.224-.012-.039-.024-.076-.036-.113-.021-.064-.044-.126-.067-.185-.014-.033-.027-.067-.041-.1-.026-.061-.054-.118-.084-.173-.012-.023-.024-.049-.037-.071a2.194,2.194,0,0,0-.135-.208c-.008-.01-.017-.018-.024-.028a1.554,1.554,0,0,0-.129-.148c-.018-.019-.037-.035-.056-.052-.038-.035-.075-.067-.114-.1-.022-.017-.044-.032-.067-.048-.04-.027-.082-.053-.124-.076a.354.354,0,0,0-.041-.026,14.346,14.346,0,0,1,2.093-.983.86.86,0,0,0,.084.033c.532.183.854.7,1.265,1.361a6.057,6.057,0,0,0,1.6,1.894,3.723,3.723,0,0,0,2.166.771,5.11,5.11,0,0,0,2.134-.6l-.241-.535.269.522a9.311,9.311,0,0,1,1.065-.428c1.449-.456,2.684-.08,4.246.4.406.125.775.236,1.166.341a2.27,2.27,0,0,0,.245.052l.083.01c.056.007.112.015.169.019l.1,0c.052,0,.1,0,.157,0,.036,0,.072,0,.107,0l.154-.006.111-.008.152-.014.113-.013.155-.02.112-.017c.053-.008.1-.015.157-.024L26.3,5.81l.038-.006a14.516,14.516,0,0,1,1.571,17.784" fill="#272525"/>
      <path id="Path_715" data-name="Path 715" d="M23.421,17.7a3.068,3.068,0,0,0-3.116,1,3.09,3.09,0,0,0-3.138-1.016,2.454,2.454,0,0,0-1.853,2.479c0,2.716,4.576,5.954,4.771,6.091l.224.157.225-.157c.194-.137,4.771-3.375,4.771-6.091A2.442,2.442,0,0,0,23.421,17.7m-3.112,7.755c-1.357-1-4.213-3.476-4.213-5.289a1.681,1.681,0,0,1,1.273-1.724,2.125,2.125,0,0,1,.55-.07,2.348,2.348,0,0,1,2.051,1.208l.346.6.335-.607a2.323,2.323,0,0,1,2.576-1.117,1.655,1.655,0,0,1,1.3,1.709c0,1.811-2.856,4.289-4.214,5.289" fill="#272525"/>
    </g>
  </g>
</svg>
