<svg xmlns="http://www.w3.org/2000/svg" width="47.355" height="47.355" viewBox="0 0 47.355 47.355">
  <g id="Group_57" data-name="Group 57" transform="translate(-23.976 -154.437)">
    <rect id="Rectangle_27" data-name="Rectangle 27" width="47.355" height="47.355" transform="translate(23.976 154.437)" fill="#fff"/>
    <path id="Path_605" data-name="Path 605" d="M30.226,76.952h-1.16V75.5a4.845,4.845,0,1,0-9.689,0v1.449H18.215a1.657,1.657,0,0,0-1.65,1.648v9.431a1.661,1.661,0,0,0,1.65,1.665H30.226a1.664,1.664,0,0,0,1.665-1.665V78.6a1.66,1.66,0,0,0-1.665-1.648M21.568,75.5a2.655,2.655,0,0,1,5.309,0v1.449H21.568Zm3.55,9.827V87.74a.18.18,0,0,1-.19.173H23.776a.176.176,0,0,1-.175-.173V85.33a2.115,2.115,0,1,1,1.518,0" transform="translate(22.716 96.896)"/>
  </g>
</svg>
