<?xml version="1.0" encoding="UTF-8"?>
<svg xmlns="http://www.w3.org/2000/svg" xmlns:xlink="http://www.w3.org/1999/xlink" width="160px" height="56px" viewBox="0 0 140 46" version="1.1">
<g id="surface1">
<path style=" stroke:none;fill-rule:nonzero;fill:rgb(55.294118%,32.54902%,62.745098%);fill-opacity:1;" d="M 75.675781 14.480469 L 75.675781 15.398438 L 41.144531 15.398438 L 41.144531 31.105469 C 39.558594 30.753906 38.046875 30.113281 36.6875 29.21875 C 35.976562 28.742188 35.3125 28.195312 34.710938 27.585938 C 34.503906 27.382812 34.304688 27.175781 34.132812 26.964844 C 34.039062 26.863281 33.945312 26.757812 33.859375 26.648438 L 33.714844 26.472656 L 33.589844 26.3125 L 33.484375 26.183594 L 33.386719 26.058594 C 33.324219 25.972656 33.253906 25.890625 33.195312 25.804688 L 33.015625 25.542969 L 32.90625 25.375 L 32.847656 25.28125 C 32.632812 24.945312 32.4375 24.609375 32.269531 24.28125 C 32.101562 23.949219 32.007812 23.789062 31.898438 23.550781 C 31.859375 23.46875 31.824219 23.386719 31.789062 23.3125 L 31.789062 23.261719 L 31.640625 22.917969 C 31.585938 22.796875 31.535156 22.675781 31.488281 22.558594 L 31.378906 22.277344 L 31.25 21.921875 C 31.222656 21.835938 31.195312 21.761719 31.171875 21.679688 L 31.066406 21.367188 L 30.972656 21.070312 L 30.890625 20.792969 L 30.824219 20.539062 C 30.824219 20.5 30.824219 20.457031 30.824219 20.417969 L 30.824219 20.359375 C 30.824219 20.34375 30.824219 20.324219 30.824219 20.308594 L 30.660156 20.164062 L 30.589844 19.851562 C 30.585938 19.816406 30.585938 19.78125 30.589844 19.746094 L 30.589844 18.585938 C 30.648438 18.808594 30.65625 18.808594 30.589844 18.585938 L 30.589844 14.429688 C 30.589844 9.125 34.878906 4.824219 40.175781 4.824219 L 66.503906 4.824219 C 66.78125 4.835938 67.054688 4.863281 67.328125 4.902344 L 67.585938 4.9375 C 68.585938 5.105469 69.546875 5.425781 70.445312 5.894531 C 73.660156 7.546875 75.679688 10.863281 75.675781 14.480469 Z M 75.675781 14.480469 "/>
<path style=" stroke:none;fill-rule:nonzero;fill:rgb(55.294118%,32.54902%,62.745098%);fill-opacity:1;" d="M 30.613281 19.984375 C 30.613281 19.929688 30.613281 19.882812 30.582031 19.84375 C 30.589844 19.878906 30.601562 19.929688 30.613281 19.984375 Z M 30.613281 19.984375 "/>
<path style=" stroke:none;fill-rule:nonzero;fill:rgb(55.294118%,32.54902%,62.745098%);fill-opacity:1;" d="M 30.703125 20.347656 L 30.703125 20.167969 L 30.730469 20.296875 C 30.722656 20.3125 30.710938 20.332031 30.703125 20.347656 Z M 30.703125 20.347656 "/>
<path style=" stroke:none;fill-rule:nonzero;fill:rgb(55.294118%,32.54902%,62.745098%);fill-opacity:1;" d="M 31.171875 21.90625 C 31.136719 21.820312 31.113281 21.742188 31.082031 21.664062 C 31.054688 21.582031 31.015625 21.453125 30.980469 21.347656 L 31.082031 21.664062 C 31.117188 21.738281 31.140625 21.84375 31.171875 21.90625 Z M 31.171875 21.90625 "/>
<path style=" stroke:none;fill-rule:nonzero;fill:rgb(55.294118%,32.54902%,62.745098%);fill-opacity:1;" d="M 32.90625 25.398438 L 32.847656 25.316406 Z M 32.90625 25.398438 "/>
<path style=" stroke:none;fill-rule:nonzero;fill:rgb(55.294118%,32.54902%,62.745098%);fill-opacity:1;" d="M 33.714844 26.472656 L 33.589844 26.3125 L 33.488281 26.183594 L 33.59375 26.3125 Z M 33.714844 26.472656 "/>
<path style=" stroke:none;fill-rule:nonzero;fill:rgb(100%,100%,100%);fill-opacity:1;" d="M 120.988281 30.960938 L 120.988281 31.953125 C 120.988281 37.242188 116.707031 41.53125 111.421875 41.53125 L 40.207031 41.53125 C 34.890625 41.53125 30.582031 37.214844 30.585938 31.894531 L 30.585938 19.734375 C 30.585938 19.78125 30.585938 19.832031 30.621094 19.882812 C 30.65625 19.9375 30.621094 20 30.660156 20.0625 L 30.691406 20.191406 L 30.691406 20.300781 C 30.691406 20.34375 30.691406 20.382812 30.691406 20.421875 L 30.757812 20.679688 L 30.839844 20.957031 L 30.933594 21.25 L 31.039062 21.5625 C 31.039062 21.644531 31.089844 21.726562 31.117188 21.808594 L 31.246094 22.160156 L 31.355469 22.445312 C 31.402344 22.558594 31.453125 22.679688 31.503906 22.804688 L 31.65625 23.144531 L 31.65625 23.195312 C 31.691406 23.273438 31.726562 23.351562 31.765625 23.433594 C 31.882812 23.671875 32.003906 23.921875 32.136719 24.164062 C 32.269531 24.40625 32.519531 24.828125 32.714844 25.164062 L 32.773438 25.257812 L 32.882812 25.425781 L 33.0625 25.6875 C 33.121094 25.773438 33.1875 25.855469 33.253906 25.941406 L 33.351562 26.070312 L 33.457031 26.195312 L 33.582031 26.359375 L 33.714844 26.519531 C 33.800781 26.632812 33.894531 26.734375 33.988281 26.839844 C 34.171875 27.046875 34.371094 27.257812 34.566406 27.460938 C 35.171875 28.058594 35.832031 28.597656 36.542969 29.0625 C 37.902344 29.957031 39.414062 30.597656 41 30.949219 Z M 120.988281 30.960938 "/>
<path style=" stroke:none;fill-rule:nonzero;fill:rgb(0%,0%,0%);fill-opacity:1;" d="M 57.769531 25.738281 L 57.800781 25.738281 Z M 57.769531 25.792969 L 57.769531 25.761719 Z M 57.769531 25.792969 "/>
<path style=" stroke:none;fill-rule:nonzero;fill:rgb(56.470588%,76.470588%,25.098039%);fill-opacity:1;" d="M 56.804688 23.632812 C 57.105469 23.496094 57.359375 23.277344 57.53125 23 C 57.714844 22.726562 57.8125 22.402344 57.8125 22.074219 C 57.808594 21.636719 57.632812 21.21875 57.320312 20.914062 C 57.015625 20.601562 56.597656 20.421875 56.160156 20.421875 L 52.539062 20.421875 L 52.417969 20.554688 L 52.417969 25.714844 L 52.539062 25.835938 L 53.570312 25.835938 L 53.691406 25.714844 L 53.691406 23.769531 L 55.539062 23.769531 L 56.539062 25.757812 L 56.601562 25.757812 L 56.652344 25.796875 L 57.671875 25.796875 L 57.757812 25.714844 L 57.789062 25.617188 L 57.671875 25.386719 Z M 53.691406 21.703125 L 56.117188 21.703125 C 56.21875 21.699219 56.320312 21.742188 56.394531 21.8125 C 56.46875 21.882812 56.507812 21.980469 56.507812 22.085938 C 56.507812 22.1875 56.46875 22.285156 56.394531 22.355469 C 56.320312 22.429688 56.21875 22.46875 56.117188 22.46875 L 53.691406 22.46875 Z M 56.660156 25.628906 L 56.699219 25.628906 Z M 56.660156 25.628906 "/>
<path style=" stroke:none;fill-rule:nonzero;fill:rgb(56.470588%,76.470588%,25.098039%);fill-opacity:1;" d="M 63.636719 20.40625 L 61.027344 20.40625 C 60.546875 20.40625 60.078125 20.53125 59.660156 20.769531 C 59.257812 21.003906 58.925781 21.34375 58.695312 21.75 C 58.460938 22.167969 58.339844 22.640625 58.34375 23.121094 L 58.34375 25.699219 L 58.46875 25.820312 L 59.5 25.820312 L 59.621094 25.699219 L 59.621094 24.28125 L 62.46875 24.28125 L 62.46875 25.699219 L 62.59375 25.820312 L 63.613281 25.820312 L 63.746094 25.699219 L 63.746094 20.527344 Z M 62.480469 23 L 59.585938 23 C 59.605469 22.644531 59.765625 22.308594 60.027344 22.066406 C 60.285156 21.824219 60.628906 21.695312 60.980469 21.703125 L 62.421875 21.703125 Z M 62.480469 23 "/>
<path style=" stroke:none;fill-rule:nonzero;fill:rgb(56.470588%,76.470588%,25.098039%);fill-opacity:1;" d="M 69.277344 21.75 C 69.046875 21.339844 68.710938 21.003906 68.304688 20.777344 C 67.886719 20.539062 67.410156 20.417969 66.929688 20.421875 L 64.355469 20.421875 L 64.21875 20.554688 L 64.21875 25.710938 L 64.355469 25.832031 L 66.953125 25.832031 C 67.429688 25.832031 67.898438 25.710938 68.316406 25.472656 C 68.722656 25.242188 69.054688 24.90625 69.28125 24.5 C 69.75 23.644531 69.75 22.609375 69.28125 21.753906 Z M 65.515625 21.703125 L 66.929688 21.703125 C 67.308594 21.691406 67.675781 21.839844 67.945312 22.109375 C 68.214844 22.378906 68.359375 22.746094 68.351562 23.128906 C 68.359375 23.503906 68.210938 23.867188 67.945312 24.136719 C 67.679688 24.402344 67.316406 24.550781 66.941406 24.546875 L 65.515625 24.546875 Z M 65.515625 21.703125 "/>
<path style=" stroke:none;fill-rule:nonzero;fill:rgb(56.470588%,76.470588%,25.098039%);fill-opacity:1;" d="M 75.207031 21.75 C 74.976562 21.339844 74.640625 21.003906 74.234375 20.769531 C 73.378906 20.296875 72.339844 20.296875 71.488281 20.769531 C 71.078125 21.003906 70.742188 21.339844 70.507812 21.75 C 70.035156 22.605469 70.035156 23.644531 70.507812 24.5 C 70.742188 24.90625 71.078125 25.242188 71.488281 25.472656 C 72.34375 25.941406 73.378906 25.941406 74.234375 25.472656 C 74.640625 25.242188 74.976562 24.90625 75.207031 24.5 C 75.675781 23.644531 75.675781 22.605469 75.207031 21.75 Z M 71.851562 22.109375 C 72.257812 21.691406 72.875 21.566406 73.410156 21.792969 C 73.949219 22.015625 74.292969 22.546875 74.28125 23.128906 C 74.289062 23.503906 74.140625 23.867188 73.871094 24.128906 C 73.304688 24.648438 72.433594 24.628906 71.894531 24.085938 C 71.351562 23.546875 71.332031 22.671875 71.851562 22.109375 Z M 71.851562 22.109375 "/>
<path style=" stroke:none;fill-rule:nonzero;fill:rgb(32.156863%,77.254902%,87.843137%);fill-opacity:1;" d="M 81.097656 21.75 C 80.867188 21.339844 80.53125 21.003906 80.125 20.769531 C 79.269531 20.296875 78.230469 20.296875 77.375 20.769531 C 76.96875 21 76.628906 21.339844 76.398438 21.75 C 75.921875 22.605469 75.921875 23.644531 76.398438 24.5 C 76.628906 24.90625 76.96875 25.242188 77.375 25.472656 C 78.230469 25.941406 79.269531 25.941406 80.125 25.472656 C 80.53125 25.242188 80.867188 24.90625 81.097656 24.5 C 81.566406 23.644531 81.566406 22.605469 81.097656 21.75 Z M 77.742188 22.109375 C 78.148438 21.691406 78.765625 21.566406 79.300781 21.792969 C 79.835938 22.015625 80.179688 22.546875 80.171875 23.128906 C 80.171875 23.503906 80.023438 23.867188 79.757812 24.132812 C 79.492188 24.398438 79.128906 24.546875 78.753906 24.539062 C 78.179688 24.539062 77.664062 24.191406 77.441406 23.660156 C 77.21875 23.128906 77.339844 22.519531 77.742188 22.109375 Z M 77.742188 22.109375 "/>
<path style=" stroke:none;fill-rule:nonzero;fill:rgb(32.156863%,77.254902%,87.843137%);fill-opacity:1;" d="M 87.003906 21.75 C 86.773438 21.339844 86.4375 21.003906 86.03125 20.769531 C 85.175781 20.296875 84.136719 20.296875 83.28125 20.769531 C 82.875 21 82.535156 21.339844 82.304688 21.75 C 81.832031 22.605469 81.832031 23.644531 82.304688 24.5 C 82.542969 24.910156 82.886719 25.246094 83.304688 25.472656 C 84.160156 25.941406 85.199219 25.941406 86.054688 25.472656 C 86.460938 25.242188 86.796875 24.90625 87.027344 24.5 C 87.496094 23.644531 87.496094 22.605469 87.027344 21.75 Z M 83.648438 22.109375 C 84.054688 21.691406 84.671875 21.566406 85.207031 21.792969 C 85.742188 22.015625 86.085938 22.546875 86.078125 23.128906 C 86.085938 23.503906 85.9375 23.867188 85.667969 24.128906 C 85.097656 24.621094 84.246094 24.59375 83.714844 24.058594 C 83.1875 23.527344 83.15625 22.675781 83.652344 22.109375 Z M 83.648438 22.109375 "/>
<path style=" stroke:none;fill-rule:nonzero;fill:rgb(32.156863%,77.254902%,87.843137%);fill-opacity:1;" d="M 92.910156 21.75 C 92.679688 21.339844 92.34375 21.003906 91.9375 20.769531 C 91.082031 20.296875 90.042969 20.296875 89.1875 20.769531 C 88.78125 21 88.441406 21.339844 88.210938 21.75 C 87.738281 22.605469 87.738281 23.644531 88.210938 24.5 C 88.441406 24.90625 88.78125 25.242188 89.1875 25.472656 C 90.046875 25.941406 91.082031 25.941406 91.9375 25.472656 C 92.34375 25.242188 92.679688 24.90625 92.910156 24.5 C 93.378906 23.644531 93.378906 22.605469 92.910156 21.75 Z M 89.148438 23.128906 C 89.148438 22.34375 89.785156 21.707031 90.566406 21.707031 C 91.347656 21.707031 91.984375 22.34375 91.984375 23.128906 C 91.992188 23.503906 91.84375 23.867188 91.574219 24.128906 C 91.011719 24.675781 90.117188 24.675781 89.554688 24.128906 C 89.285156 23.867188 89.140625 23.503906 89.148438 23.128906 Z M 89.148438 23.128906 "/>
<path style=" stroke:none;fill-rule:nonzero;fill:rgb(0%,0%,0%);fill-opacity:1;" d="M 93.839844 20.453125 L 93.839844 20.417969 Z M 93.839844 25.738281 L 93.839844 25.773438 Z M 93.8125 25.691406 Z M 93.8125 20.515625 L 93.847656 20.464844 Z M 99.144531 25.726562 L 99.175781 25.726562 Z M 99.144531 20.441406 L 99.144531 20.492188 Z M 99.144531 25.773438 L 99.144531 25.726562 L 99.144531 25.78125 Z M 99.144531 25.773438 "/>
<path style=" stroke:none;fill-rule:nonzero;fill:rgb(32.156863%,77.254902%,87.843137%);fill-opacity:1;" d="M 98.140625 22.628906 L 99.15625 20.601562 L 99.121094 20.5 L 99.152344 20.542969 L 99.042969 20.433594 L 98.011719 20.433594 L 97.964844 20.488281 L 97.902344 20.488281 L 96.90625 22.472656 L 96.03125 22.472656 L 95.039062 20.488281 L 94.972656 20.488281 L 94.921875 20.433594 L 93.898438 20.433594 L 93.824219 20.515625 L 93.789062 20.625 L 94.800781 22.652344 L 94.800781 23.578125 L 93.789062 25.617188 L 93.816406 25.714844 L 93.898438 25.796875 L 94.921875 25.796875 L 94.972656 25.746094 L 95.039062 25.746094 L 96.03125 23.753906 L 96.90625 23.753906 L 97.902344 25.75 L 97.960938 25.75 L 98.011719 25.804688 L 99.042969 25.804688 L 99.121094 25.722656 L 99.15625 25.625 L 98.140625 23.578125 Z M 98.0625 20.566406 L 98.0625 20.597656 L 98.027344 20.597656 Z M 94.917969 20.601562 L 94.875 20.566406 Z M 94.875 25.667969 L 94.945312 25.667969 Z M 98.027344 25.636719 L 98.09375 25.636719 Z M 98.027344 25.636719 "/>
</g>
</svg>
