<svg id="Layer_1" data-name="Layer 1" width="106" xmlns="http://www.w3.org/2000/svg" viewBox="0 0 262 46"><defs><style>.cls-1{fill:#8d53a0;}.cls-2{fill:#fff;}.cls-3{fill:#90c340;}.cls-4{fill:#52c5e0;}</style></defs><title>Artboard 2</title><g id="_Group_" data-name="&lt;Group&gt;"><path class="cls-1" d="M130.87,12.45v1.11h-42v19A16.32,16.32,0,0,1,83.5,30.3a15.46,15.46,0,0,1-2.4-1.95c-.25-.24-.49-.5-.72-.75L80,27.22,79.89,27l-.15-.19-.12-.15-.12-.16-.23-.31L79,25.9l-.14-.2-.07-.11,0,0,0,0c-.26-.41-.5-.82-.72-1.22s-.31-.59-.45-.89l-.14-.29,0-.06-.18-.41-.18-.44L77,21.88l-.15-.43-.1-.3-.13-.38-.11-.36-.1-.34-.08-.31,0-.15,0-.07,0-.06,0-.16L76.09,19a.57.57,0,0,1,0-.13V17.43c.07.27.07.27,0,0v-5A11.65,11.65,0,0,1,87.74.73h31.4l.58,0h0a9.36,9.36,0,0,1,1,.1l.32,0A11.74,11.74,0,0,1,124.54,2,11.7,11.7,0,0,1,130.87,12.45Z"/><path class="cls-1" d="M76.12,19.12l0-.17h0Z"/><path class="cls-1" d="M76.23,19.56V19.5l0-.16,0,.16Z"/><path class="cls-1" d="M76.8,21.45c0-.1-.07-.2-.1-.3l-.12-.38.13.38Z"/><path class="cls-1" d="M78.91,25.7l-.07-.11v0l0,0Z"/><path class="cls-1" d="M79.89,27l-.16-.19-.12-.15.12.15Z"/></g><path class="cls-2" d="M185.92,32.45v1.2A11.63,11.63,0,0,1,174.3,45.27H87.77A11.69,11.69,0,0,1,76.09,33.58V18.8l0,.18c0,.07,0,.14.05.22h0l0,.16v.06l0,.07,0,.15.08.31.1.34.11.36.13.38.1.3.15.43.14.34.18.44.18.41,0,.06.14.29c.14.29.29.59.45.89s.46.81.72,1.22l0,0h0l0,0,.07.11.14.2.22.31.23.31.12.16.12.15.15.19.16.19.33.38c.23.25.47.51.72.75a15.46,15.46,0,0,0,2.4,1.95,16.32,16.32,0,0,0,5.41,2.29Z"/><path d="M109.11,26.11l0,0v0Zm0,.06,0,0,0,0Z"/><path class="cls-3" d="M107.94,23.55a2,2,0,0,0,.89-.75,2,2,0,0,0,.34-1.12,2,2,0,0,0-.6-1.44,2,2,0,0,0-1.43-.6h-4.38l-.15.16v6.26l.15.15H104l.15-.15V23.72h2.25l1.22,2.41.08,0,.06.05H109l.11-.1,0-.12L109,25.7Zm-3.78-2.34h3a.47.47,0,0,1,.34.14.46.46,0,0,1,0,.66.46.46,0,0,1-.34.14h-3Zm3.6,4.77.05,0,0,0Z"/><path class="cls-3" d="M116.21,19.64H113a3.34,3.34,0,0,0-1.66.44,3.17,3.17,0,0,0-1.17,1.19,3.38,3.38,0,0,0-.43,1.67v3.13l.15.15h1.25l.15-.15V24.34h3.46v1.72l.15.15h1.24l.16-.15V19.78Zm-1.42,3.15h-3.44a1.66,1.66,0,0,1,.53-1.13,1.64,1.64,0,0,1,1.16-.44h1.75Z"/><path class="cls-3" d="M123.1,21.27a3.08,3.08,0,0,0-1.18-1.18,3.33,3.33,0,0,0-1.67-.43h-3.13l-.16.16v6.25l.16.15h3.15a3.35,3.35,0,0,0,1.66-.44,3.06,3.06,0,0,0,1.17-1.18,3.47,3.47,0,0,0,0-3.33Zm-4.57-.06h1.71A1.69,1.69,0,0,1,122,22.94a1.7,1.7,0,0,1-1.71,1.72h-1.73Z"/><path class="cls-3" d="M130.27,21.27a3.13,3.13,0,0,0-1.18-1.19,3.44,3.44,0,0,0-3.34,0,3.16,3.16,0,0,0-1.19,1.19,3.44,3.44,0,0,0,0,3.34,3.12,3.12,0,0,0,1.19,1.18,3.48,3.48,0,0,0,3.34,0,3.1,3.1,0,0,0,1.18-1.18,3.47,3.47,0,0,0,0-3.34Zm-4.08.44a1.72,1.72,0,0,1,2.95,1.24,1.65,1.65,0,0,1-.5,1.22,1.73,1.73,0,0,1-2.45-2.45Z"/><path class="cls-4" d="M137.45,21.27a3.13,3.13,0,0,0-1.18-1.19,3.44,3.44,0,0,0-3.34,0,3.14,3.14,0,0,0-1.19,1.19,3.42,3.42,0,0,0,0,3.34,3.11,3.11,0,0,0,1.19,1.18,3.48,3.48,0,0,0,3.34,0,3.1,3.1,0,0,0,1.18-1.18,3.46,3.46,0,0,0,0-3.34Zm-4.08.44a1.72,1.72,0,0,1,3,1.24,1.7,1.7,0,0,1-1.72,1.71,1.74,1.74,0,0,1-1.23-2.95Z"/><path class="cls-4" d="M144.63,21.27a3.13,3.13,0,0,0-1.18-1.19,3.44,3.44,0,0,0-3.34,0,3.14,3.14,0,0,0-1.19,1.19,3.44,3.44,0,0,0,0,3.34,3.11,3.11,0,0,0,1.19,1.18,3.48,3.48,0,0,0,3.34,0,3.1,3.1,0,0,0,1.18-1.18,3.46,3.46,0,0,0,0-3.34Zm-4.07.44a1.72,1.72,0,0,1,2.95,1.24,1.64,1.64,0,0,1-.5,1.22,1.73,1.73,0,0,1-2.45-2.45Z"/><path class="cls-4" d="M151.81,21.27a3.13,3.13,0,0,0-1.18-1.19,3.44,3.44,0,0,0-3.34,0,3.14,3.14,0,0,0-1.19,1.19,3.44,3.44,0,0,0,0,3.34,3.11,3.11,0,0,0,1.19,1.18,3.48,3.48,0,0,0,3.34,0,3.1,3.1,0,0,0,1.18-1.18,3.46,3.46,0,0,0,0-3.34Zm-4.57,1.67a1.72,1.72,0,1,1,3.44,0,1.65,1.65,0,0,1-.5,1.22,1.76,1.76,0,0,1-2.45,0A1.65,1.65,0,0,1,147.24,22.94Z"/><path d="M152.93,19.69l0,0,0,0Zm0,6.42v0h0Zm0-.05v0l0,0Zm0-6.28v0l0-.06Zm6.48,6.34,0,0v0Zm0-6.42,0,0,0,.06Zm0,6.47,0-.05,0,.06Z"/><path class="cls-4" d="M158.16,22.33l1.24-2.46,0-.12,0,.05v0l-.13-.13H158l-.05.06-.08,0-1.21,2.41H155.6l-1.21-2.41-.08,0-.06-.06H153l-.09.1,0,.13,1.23,2.46v1.18L152.87,26l0,.12.1.1h1.24l.06-.06.08,0,1.21-2.43h1.06l1.21,2.43.07,0,.06.06h1.25l.1-.1,0-.12-1.24-2.47Zm-.09-2.5,0,0h0Zm-3.82,0h0l0,0ZM154.17,26l0,0h.05ZM158,26h0l0,0Z"/></svg>