<svg xmlns="http://www.w3.org/2000/svg" width="50" height="50.002" viewBox="0 0 50 50.002">
  <g id="Group_80" data-name="Group 80" transform="translate(-4815.822 -2941.023)">
    <path id="Path_681" data-name="Path 681" d="M656.617,1060.024a10.5,10.5,0,0,1-1.35-.53,3.826,3.826,0,0,1-1.888-2.552c-.606-.046-1.208-.053-1.8-.141a5.458,5.458,0,0,1-4.529-5.142c-.02-.719.258-1.007.984-1.011,1.123-.006,2.246-.007,3.368-.01a2.154,2.154,0,0,0,.226-.083,2.78,2.78,0,0,1-.427-.25,7.513,7.513,0,0,1-2.593-5.682c-.014-.83-.009-1.66,0-2.49.006-.492.263-.845.7-.844a17.329,17.329,0,0,1,4.471.216,7.532,7.532,0,0,1,5.009,4.1c.05.1.1.2.159.3.346-.186.3-.418.165-.714a11.88,11.88,0,0,1-1.129-5.1q-.005-5.981,0-11.963a2.341,2.341,0,0,1,2.483-2.476q11.426,0,22.851,0c1.729,0,2.505.632,2.8,2.175a28.1,28.1,0,0,1,3.389.834,9.349,9.349,0,0,1-1.894,17.951c-1.021.16-2.077.085-3.115.147a.813.813,0,0,0-.554.26,12.581,12.581,0,0,1-3.684,3.443c-.051.031-.1.074-.247.193h.616q7.642,0,15.283-.009a1.225,1.225,0,0,1,1.132.5v.977a2.218,2.218,0,0,0-.091.269,5.241,5.241,0,0,1-3.625,4.2,16.575,16.575,0,0,1-2.63.44,3.812,3.812,0,0,1-1.879,2.479,10.8,10.8,0,0,1-1.347.525Zm25.615-13.283h-9.805a3.785,3.785,0,0,1-.439-.008.776.776,0,0,1,.025-1.548c.145-.014.293-.006.439-.006,3.45,0,6.9-.006,10.35.009a.627.627,0,0,0,.659-.416,10.58,10.58,0,0,0,1.086-4.612q.011-5.98,0-11.961c0-.724-.273-.989-1.01-.99q-2.124,0-4.247,0h-18.7c-.739,0-1.043.254-1.043.907,0,4.133-.015,8.267.013,12.4a9.162,9.162,0,0,0,.838,3.717c.7-.349,1.34-.728,2.026-1.006a10.565,10.565,0,0,1,4.245-.372.7.7,0,0,1,.683.757c.072,2.167.076,4.32-1.588,6.23a19.047,19.047,0,0,0,2.935.681c1.814.128,3.64.13,5.461.113a10.241,10.241,0,0,0,6.81-2.635c.409-.357.77-.767,1.259-1.259m6.793,10.157H672.574c-.93,0-1.312-.233-1.3-.794s.375-.769,1.278-.769q9.425,0,18.849,0a4.014,4.014,0,0,0,2.63-.87,3.783,3.783,0,0,0,1.367-2.231H648.714a2.145,2.145,0,0,0,.034.217,3.893,3.893,0,0,0,3.747,2.877c2.458.015,4.916,0,7.374,0,.13,0,.261,0,.391,0a.782.782,0,1,1-.011,1.558c-1.562.009-3.125,0-4.688,0h-.525a2.3,2.3,0,0,0,2.362,1.562h29.3c.13,0,.261,0,.39-.008a2.163,2.163,0,0,0,1.938-1.555m-2.89-25.8c.164.01.292.017.42.026a6.247,6.247,0,0,1,4.919,9.426,6.12,6.12,0,0,1-5.384,3.071c-.185,0-.474.052-.533.17a13.218,13.218,0,0,0-.524,1.371c3.353.2,6.052-.922,7.775-3.82a7.394,7.394,0,0,0-.207-8.295,7.609,7.609,0,0,0-6.466-3.507Zm-.066,1.6v9.325a4.663,4.663,0,1,0,0-9.325m-28.108,16.82a5.944,5.944,0,0,0-.782-3.626c-1.646-2.718-4.071-3.306-6.964-3.006-.194,2.577.027,4.492,2.113,6.318a5.9,5.9,0,0,0,4.534,1.415c-1.342-1.338-2.609-2.6-3.875-3.865a2.425,2.425,0,0,1-.326-.361.771.771,0,0,1,1.07-1.072,2.7,2.7,0,0,1,.4.36c1.253,1.252,2.505,2.506,3.836,3.838m7.815-5.079c-3.426-.423-6.546,2.1-6.167,5.009.132-.122.251-.224.362-.335.679-.677,1.353-1.359,2.036-2.032a.8.8,0,0,1,1.2-.12c.356.341.318.8-.109,1.238-.387.395-.773.79-1.174,1.171s-.829.755-1.244,1.132c3.069.321,5.327-2.457,5.093-6.062" transform="translate(4168.771 1931.001)"/>
    <path id="Path_682" data-name="Path 682" d="M739.7,945.847c-2.067,0-4.133,0-6.2,0-.687,0-1.09.515-.855,1.068a.828.828,0,0,0,.868.495c1.757-.005,3.515-.01,5.272,0a3.118,3.118,0,0,1,3.133,2.664,2.115,2.115,0,0,1,.029.486.764.764,0,0,1-.753.748.752.752,0,0,1-.789-.657c-.28-1.368-.652-1.68-2.033-1.68-1.627,0-3.255,0-4.882,0a2.346,2.346,0,1,1-.007-4.685q5.98-.006,11.961,0c.146,0,.294.008.439-.005a.781.781,0,0,0,.755-.8.764.764,0,0,0-.752-.75c-.52-.023-1.041-.008-1.562-.008-1.53,0-3.059.005-4.589,0a4.683,4.683,0,0,1-4.77-4.083,3.184,3.184,0,0,1-.038-.535.779.779,0,1,1,1.555-.04,2.972,2.972,0,0,0,1.645,2.69,3.921,3.921,0,0,0,1.632.389c2.049.045,4.1.007,6.151.024a2.315,2.315,0,0,1,2.248,1.882,2.284,2.284,0,0,1-1.276,2.546,3.055,3.055,0,0,1-1.177.243c-2,.024-4,.011-6,.011" transform="translate(4099.644 2003.767)"/>
  </g>
</svg>
