<svg xmlns="http://www.w3.org/2000/svg" width="50" height="32.059" viewBox="0 0 50 32.059">
  <g id="Group_77" data-name="Group 77" transform="translate(-4665.789 -2768.715)">
    <path id="Path_651" data-name="Path 651" d="M104.17,315.243a2.586,2.586,0,0,1,1.658-1.391,3.686,3.686,0,0,1,.726-.074q10.811-.006,21.622,0a2.3,2.3,0,0,1,2.46,2.44c.014.993,0,1.986,0,3.045h.558q2.715,0,5.43,0a3.076,3.076,0,0,1,3.162,2.332c.776,2.5,1.553,5.006,2.309,7.514a.579.579,0,0,0,.553.487c2.8.361,5.586.755,8.383,1.1a3.181,3.181,0,0,1,3.134,3.511c0,1.239,0,2.479,0,3.718a3.046,3.046,0,0,1-2.824,3.17c-.312.037-.381.174-.444.447a5.421,5.421,0,0,1-10.616-.056c-.092-.418-.341-.356-.61-.356H122.355c-.783,0-1.566.011-2.348-.005-.3-.006-.417.09-.483.394a5.416,5.416,0,0,1-10.576.133c-.1-.417-.249-.562-.668-.531-.47.035-.947-.017-1.418.013a2.549,2.549,0,0,1-2.693-1.528Zm26.5,5.487c-.02.352-.015.66-.061.96a.654.654,0,0,1-.714.6.664.664,0,0,1-.7-.616,3.174,3.174,0,0,1-.022-.488q0-2.372,0-4.745c0-.947-.247-1.195-1.179-1.195H106.715c-.931,0-1.175.248-1.175,1.2q0,11.006,0,22.012c0,.13-.007.262,0,.391a.756.756,0,0,0,.723.786c.843.037,1.688.011,2.544.011.028-.121.05-.213.071-.307a5.419,5.419,0,0,1,5.145-4.367,5.057,5.057,0,0,1,2.857.693.716.716,0,0,1,.326,1,.724.724,0,0,1-.964.308c-.165-.069-.321-.159-.486-.229a3.964,3.964,0,1,0,2.38,3.026c-.047-.288-.157-.567-.191-.856a.649.649,0,0,1,.52-.77.678.678,0,0,1,.849.4,1.828,1.828,0,0,1,.195.652c.019.422.233.485.6.483,2.837-.013,5.674-.007,8.511-.008.172,0,.343-.017.546-.028v-.639q0-6.946,0-13.892c0-.758.226-1.113.711-1.129.5-.017.756.36.756,1.135q0,5.381,0,10.762v.65h.663q3.3,0,6.6,0a2.3,2.3,0,0,1,.581.048.714.714,0,0,1-.036,1.383,2.621,2.621,0,0,1-.535.034q-3.326,0-6.653,0h-.6v1.631a3.173,3.173,0,0,0,.355.042c2.935,0,5.87,0,8.8.007.28,0,.388-.087.45-.37a5.422,5.422,0,0,1,8.891-2.994.707.707,0,0,0,.371.2c1.038.016,2.076.009,3.125.009v-1.637c-.6-.116-1.487.222-1.5-.755-.015-.934.844-.677,1.406-.774a1.634,1.634,0,0,0-1.56-1.177q-2.861-.353-5.716-.761a38.534,38.534,0,0,0-6.765-.5c-1.547.053-3.1.019-4.647.005a1.463,1.463,0,0,1-1.56-1.52q-.028-2.739,0-5.478a1.494,1.494,0,0,1,1.573-1.519c.9-.012,1.794,0,2.69,0h1.856a1.684,1.684,0,0,0-1.833-1.667c-1.647,0-3.294,0-4.94,0Zm3.145,3.136v5.565h6.852c-.556-1.8-1.1-3.569-1.659-5.33a.5.5,0,0,0-.394-.224c-.928-.02-1.856-.01-2.783-.01h-2.015m7.816,16.51a3.967,3.967,0,1,0,3.989-3.953,3.971,3.971,0,0,0-3.989,3.953m11.033-2.352h-2.124l.478,1.6a1.516,1.516,0,0,0,1.646-1.6" transform="translate(4561.619 2454.94)"/>
    <path id="Path_652" data-name="Path 652" d="M136.789,344.02l-.922.943c.12.128.234.257.355.379q2.765,2.767,5.531,5.533a2.058,2.058,0,0,1,.347.406.6.6,0,0,1-.154.867,1.447,1.447,0,0,1-.846.087c-.145-.017-.273-.215-.4-.341q-4.168-4.165-8.33-8.335a2.515,2.515,0,0,1-.283-.412,3.26,3.26,0,0,1-4.261-.791c-.551-.6-1.151-1.153-1.724-1.734-.409-.414-.446-.827-.118-1.154s.739-.288,1.154.122c.672.665,1.334,1.34,2.008,2a1.622,1.622,0,1,0,2.3-2.282c-.651-.663-1.313-1.315-1.968-1.974-.446-.448-.5-.847-.171-1.188s.747-.3,1.189.139q.886.877,1.764,1.762a3.13,3.13,0,0,1,.822,4.019l1.862,1.863a2.113,2.113,0,0,1,.263-.394q3.451-3.465,6.912-6.918c.606-.605.98-.58,1.521.1a3.462,3.462,0,0,1-.145,4.49c-1.368,1.442-2.8,2.828-4.207,4.228a.7.7,0,0,1-1.116,0c-.465-.453-.908-.929-1.378-1.412m1.089-.971.783.811c1.288-1.253,2.583-2.462,3.813-3.734a1.822,1.822,0,0,0,.3-1.973l-4.9,4.9" transform="translate(4543.849 2436.715)"/>
    <path id="Path_653" data-name="Path 653" d="M152.486,453.407a2.291,2.291,0,0,1-2.271,2.321,2.3,2.3,0,1,1-.043-4.594,2.279,2.279,0,0,1,2.314,2.273m-1.47.04a.807.807,0,0,0-.816-.841.831.831,0,0,0-.84.828.844.844,0,0,0,.8.82.819.819,0,0,0,.853-.807" transform="translate(4525.642 2341.904)"/>
    <path id="Path_654" data-name="Path 654" d="M136.115,400.98c-.227-.172-.511-.283-.593-.479a1.273,1.273,0,0,1,.028-.77c.042-.152.23-.265.356-.391q2.053-2.055,4.108-4.108c.418-.417.876-.46,1.191-.125.3.319.247.756-.154,1.158q-2.137,2.143-4.285,4.277a4.5,4.5,0,0,1-.651.439" transform="translate(4535.859 2388.194)"/>
    <path id="Path_655" data-name="Path 655" d="M138.806,348.243c-.143.184-.258.47-.457.551a.873.873,0,0,1-.757-.047c-.828-.759-1.623-1.558-2.391-2.378a.717.717,0,0,1,1.016-.986c.805.761,1.581,1.554,2.355,2.347a1.939,1.939,0,0,1,.235.513" transform="translate(4536.219 2429.073)"/>
    <path id="Path_656" data-name="Path 656" d="M327.417,451.137a2.3,2.3,0,1,1-2.273,2.313,2.277,2.277,0,0,1,2.273-2.313m.854,2.3a.828.828,0,0,0-.835-.832.81.81,0,0,0-.822.788.82.82,0,0,0,.8.86.84.84,0,0,0,.856-.816" transform="translate(4379.773 2341.902)"/>
  </g>
</svg>
