<svg xmlns="http://www.w3.org/2000/svg" xmlns:xlink="http://www.w3.org/1999/xlink" width="28.315" height="36.011" viewBox="0 0 28.315 36.011">
  <defs>
    <clipPath id="clip-path">
      <rect id="Rectangle_228" data-name="Rectangle 228" width="28.315" height="36.011" transform="translate(0 0)" fill="none"/>
    </clipPath>
  </defs>
  <g id="Group_206" data-name="Group 206" transform="translate(0 0)">
    <g id="Group_205" data-name="Group 205" clip-path="url(#clip-path)">
      <path id="Path_701" data-name="Path 701" d="M21.667,15.15H4.215a.543.543,0,0,0,0,1.085H21.667a.543.543,0,0,0,0-1.085" fill="#272525"/>
      <path id="Path_702" data-name="Path 702" d="M21.667,20.1H4.215a.543.543,0,0,0,0,1.085H21.667a.543.543,0,0,0,0-1.085" fill="#272525"/>
      <path id="Path_703" data-name="Path 703" d="M21.667,25.047H4.215a.543.543,0,0,0,0,1.085H21.667a.543.543,0,0,0,0-1.085" fill="#272525"/>
      <path id="Path_704" data-name="Path 704" d="M21.667,30H4.215a.543.543,0,0,0,0,1.085H21.667a.543.543,0,0,0,0-1.085" fill="#272525"/>
      <path id="Path_705" data-name="Path 705" d="M6.056,10.744a1.394,1.394,0,1,0-1.394,1.393,1.395,1.395,0,0,0,1.394-1.393m-2.208,0a.815.815,0,1,1,.814.815.816.816,0,0,1-.814-.815" fill="#272525"/>
      <path id="Path_706" data-name="Path 706" d="M8.8,12.137a1.393,1.393,0,1,0-1.393-1.393A1.395,1.395,0,0,0,8.8,12.137m0-2.208a.815.815,0,1,1-.814.815A.815.815,0,0,1,8.8,9.929" fill="#272525"/>
      <path id="Path_707" data-name="Path 707" d="M12.94,12.137a1.393,1.393,0,1,0-1.393-1.393,1.4,1.4,0,0,0,1.393,1.393m0-2.208a.815.815,0,1,1-.815.815.816.816,0,0,1,.815-.815" fill="#272525"/>
      <path id="Path_708" data-name="Path 708" d="M17.079,12.137a1.393,1.393,0,1,0-1.394-1.393,1.395,1.395,0,0,0,1.394,1.393m0-2.208a.815.815,0,1,1-.815.815.815.815,0,0,1,.815-.815" fill="#272525"/>
      <path id="Path_709" data-name="Path 709" d="M19.824,10.744A1.394,1.394,0,1,0,21.218,9.35a1.395,1.395,0,0,0-1.394,1.394m1.394-.815a.815.815,0,1,1-.814.815.815.815,0,0,1,.814-.815" fill="#272525"/>
      <path id="Path_710" data-name="Path 710" d="M27.5,8.877c-.255.005-.577,0-.94-.023V5.564H22.921A3.207,3.207,0,0,0,23.976,3.3a2.153,2.153,0,0,0-1.761-2.19,2.38,2.38,0,0,0-2.09.337,3.114,3.114,0,0,0-1.061,2.035L19.05,3.46a3,3,0,0,1-.066-2.425A.818.818,0,0,0,18.368.028.787.787,0,0,0,17.376.6a4.5,4.5,0,0,0,.609,4.215,4.2,4.2,0,0,0,.822.745H0V36.011H26.556V10.523q.347.02.7.02l.249,0a.819.819,0,0,0,.808-.86.793.793,0,0,0-.819-.8M25.688,6.432V8.759A6.32,6.32,0,0,1,21.4,6.432Zm0,28.711H.868V6.432H19.452a7.749,7.749,0,0,0,6.236,4.007ZM27.5,9.962c-3.519.071-6.335-1.352-7.528-3.794a3.412,3.412,0,0,1-.227-.622l-.034-.125-.116-.058a3.684,3.684,0,0,1-1.162-.915,3.919,3.919,0,0,1-.491-3.7.2.2,0,0,1,.2-.169.307.307,0,0,1,.082.011.245.245,0,0,1,.2.3,3.506,3.506,0,0,0,.13,2.864,2.969,2.969,0,0,0,.544.657l.473.434.012-.642a2.924,2.924,0,0,1,.9-2.3,1.8,1.8,0,0,1,1.6-.234A1.568,1.568,0,0,1,23.4,3.3a2.5,2.5,0,0,1-1.839,2.356A2.587,2.587,0,0,1,20.8,5.7l-.519-.035.243.459c1.636,3.092,5.426,3.354,6.981,3.328h.007a.215.215,0,0,1,.222.237.244.244,0,0,1-.24.27" fill="#272525"/>
      <path id="Path_711" data-name="Path 711" d="M22.095,4.892c.962-.632.89-1.334.814-1.606a1.474,1.474,0,0,0-2.82.066,2.623,2.623,0,0,0-.046,1.528l.037.158.155.051a2.449,2.449,0,0,0,.76.126,1.971,1.971,0,0,0,1.1-.323m-1.523-.308a1.944,1.944,0,0,1,.059-1.032.9.9,0,0,1,1.721-.112c.089.322-.115.666-.575.969a1.5,1.5,0,0,1-1.2.175" fill="#272525"/>
    </g>
  </g>
</svg>
