<svg xmlns="http://www.w3.org/2000/svg" width="50.009" height="50" viewBox="0 0 50.009 50">
  <g id="Group_42" data-name="Group 42" transform="translate(-4476.266 -1152.756)">
    <path id="Path_641" data-name="Path 641" d="M113.12,608a1.039,1.039,0,0,1-.588-1.172,1.823,1.823,0,0,0-.7-1.689c-2.418-2.369-4.8-4.777-7.193-7.171a3.775,3.775,0,0,1,4.778-5.84,11.406,11.406,0,0,1,.863.79c.716.709,1.424,1.426,2.2,2.207V582.534a12.306,12.306,0,0,1-7.844-6.58,11.934,11.934,0,0,1-.979-8.169,12.51,12.51,0,0,1,12.769-9.778,12.509,12.509,0,0,1,2.769,24.551v2.532a3.377,3.377,0,0,1,4.151.711,3.432,3.432,0,0,1,2.51-1.129,3.388,3.388,0,0,1,2.487,1.13,3.728,3.728,0,0,1,2.144-1.1,3.328,3.328,0,0,1,3.625,2.694,7.537,7.537,0,0,1,.075,1.069c0,4.33,0,8.659.011,12.989a3.026,3.026,0,0,1-.421,1.721,2.958,2.958,0,0,0-.444,1.854c.037.616-.015,1.238.015,1.855a1.08,1.08,0,0,1-.6,1.119Zm4.4-15.022v-.625q0-6.958,0-13.915c0-.179.005-.359-.007-.537a1.65,1.65,0,0,0-1.438-1.546,1.622,1.622,0,0,0-1.811,1.215,3.1,3.1,0,0,0-.068.772q-.005,9.252,0,18.5c0,.445-.038.865-.5,1.067-.489.211-.829-.055-1.155-.389-.7-.722-1.424-1.43-2.138-2.143-.587-.587-1.158-1.191-1.767-1.754a2.113,2.113,0,1,0-2.842,3.122q3.636,3.648,7.283,7.285c.629.628,1.41,1.174,1.085,2.273h17.527c0-.4.028-.771-.005-1.139a4.5,4.5,0,0,1,.652-2.841,1.694,1.694,0,0,0,.192-.833c.018-1.562.008-3.125.008-4.687,0-2.816,0-5.631-.006-8.447a3.082,3.082,0,0,0-.13-.959,1.629,1.629,0,0,0-1.737-1.058,1.581,1.581,0,0,0-1.432,1.491c-.044,1.512-.025,3.026-.032,4.539,0,.19,0,.38,0,.593h-1.673v-.549c0-1.4,0-2.8,0-4.2a1.758,1.758,0,0,0-.592-1.484,1.578,1.578,0,0,0-1.735-.256,1.661,1.661,0,0,0-1.01,1.643c-.008,1.432,0,2.864,0,4.3,0,.174,0,.348,0,.532h-1.667v-.571c0-1.416,0-2.832,0-4.248a1.69,1.69,0,0,0-.51-1.323,1.57,1.57,0,0,0-1.76-.352,1.628,1.628,0,0,0-1.061,1.606c-.011,1.465,0,2.93,0,4.394v.522Zm-5.444-21.654c-1.086-1.9-1.246-2.351-1.2-3.583a4.675,4.675,0,0,1,1.562-3.359,4.9,4.9,0,0,1,6.274-.475,4.968,4.968,0,0,1,1.97,2.819,5.052,5.052,0,0,1-1.073,4.584,9.363,9.363,0,0,1,4.956,5.514,10.789,10.789,0,1,0-17.416.009,9.325,9.325,0,0,1,4.927-5.51m.466,9.459c0-1.057-.046-2.035.009-3.007a3.3,3.3,0,0,1,4.87-2.7,3.242,3.242,0,0,1,1.762,2.992c.013.886,0,1.773,0,2.671a9.431,9.431,0,0,0,3.866-2.19.717.717,0,0,0,.085-.564,7.324,7.324,0,0,0-4.743-5.34,1.062,1.062,0,0,0-.685,0,5.13,5.13,0,0,1-3.717-.009.864.864,0,0,0-.552-.039,7.393,7.393,0,0,0-4.894,5.5.529.529,0,0,0,.074.433,10.351,10.351,0,0,0,3.922,2.257m6.639-12.776a3.325,3.325,0,1,0-3.291,3.309,3.356,3.356,0,0,0,3.291-3.309" transform="translate(4385.414 594.756)"/>
    <path id="Path_642" data-name="Path 642" d="M7.633,633.685a21.757,21.757,0,0,1,.957-2.429,5.2,5.2,0,0,1,2.185-2.024,4.174,4.174,0,0,1-1.434-3.594,4.006,4.006,0,0,1,1.37-2.666,4.133,4.133,0,0,1,5.664.125c1.68,1.619,1.627,3.821-.169,6.128a2.618,2.618,0,0,0,.213.164A5.778,5.778,0,0,1,19.3,634.5q.017,1.1,0,2.2c-.011.732-.284,1.029-1,1.031-3.223.009-6.446,0-9.669.006a1,1,0,0,1-1-.631v-3.418m9.96,2.356c0-.72.038-1.387-.007-2.048a4.147,4.147,0,0,0-5.938-3.323c-2.129,1.107-2.576,3.047-2.281,5.37Zm-1.641-10a2.494,2.494,0,0,0-2.5-2.472,2.494,2.494,0,1,0,.047,4.988,2.487,2.487,0,0,0,2.45-2.517" transform="translate(4468.633 539.185)"/>
    <path id="Path_643" data-name="Path 643" d="M309.833,622.842a6.042,6.042,0,0,1,2.423,2.4,5.652,5.652,0,0,1,.7,2.563c.023.861.02,1.724.009,2.586a.848.848,0,0,1-.938.947q-4.9.014-9.808,0c-.445,0-.854-.2-.869-.68a12.519,12.519,0,0,1,.284-4.544,5.7,5.7,0,0,1,2.447-3.058c.107-.067.208-.146.351-.246a4.092,4.092,0,0,1-1.407-3.735,3.93,3.93,0,0,1,1.332-2.481,4.155,4.155,0,1,1,5.479,6.246m1.5,6.819c-.036-.786-.025-1.534-.112-2.27a4.133,4.133,0,0,0-5.912-3.107c-2.15,1.129-2.563,3.047-2.26,5.378Zm-4.191-12.477a2.492,2.492,0,1,0,.006,4.984,2.492,2.492,0,0,0-.006-4.984" transform="translate(4213.304 544.745)"/>
  </g>
</svg>
