<svg xmlns="http://www.w3.org/2000/svg" width="40" height="39.999" viewBox="0 0 40 39.999">
  <g id="Group_284" data-name="Group 284" transform="translate(-5606 -5983.805)">
    <path id="Path_692" data-name="Path 692" d="M40,25.386A20,20,0,1,0,16.875,45.143V31.167H11.8V25.386h5.078V20.98c0-5.012,2.986-7.781,7.554-7.781a30.743,30.743,0,0,1,4.477.391v4.922H26.384c-2.484,0-3.259,1.542-3.259,3.123v3.752h5.547l-.887,5.781h-4.66V45.143A20.005,20.005,0,0,0,40,25.386" transform="translate(5606 5978.419)" fill="#4676ed"/>
    <path id="Path_693" data-name="Path 693" d="M55.8,49.722l.887-5.781H51.143V40.189c0-1.582.775-3.124,3.259-3.124h2.522V32.144a30.766,30.766,0,0,0-4.477-.391c-4.568,0-7.554,2.769-7.554,7.781V43.94H39.815v5.781h5.078V63.7a20.219,20.219,0,0,0,6.25,0V49.722Z" transform="translate(5577.982 5959.864)" fill="#fff"/>
  </g>
</svg>
