<svg xmlns="http://www.w3.org/2000/svg" width="49.975" height="50" viewBox="0 0 49.975 50">
  <g id="Group_79" data-name="Group 79" transform="translate(-4807.426 -2851.188)">
    <path id="Path_657" data-name="Path 657" d="M643.271,662.2h-3.227a2.537,2.537,0,0,0-.372-.083,23.881,23.881,0,0,1-9.024-2.482,5.649,5.649,0,0,1-1.081-1.007c-.113-.1-.263-.245-.393-.242a2.644,2.644,0,0,1-1.6-.511,25.09,25.09,0,0,1-10.892-18.815,2.266,2.266,0,0,1,.355-1.582c.156-.215.071-.349-.008-.559a4.414,4.414,0,0,1-.338-1.343,9.308,9.308,0,0,1,.162-1.7,24.66,24.66,0,0,1,10.839-17.384,3.667,3.667,0,0,1,1.413-.433.684.684,0,0,0,.487-.28,3.415,3.415,0,0,1,1.034-.987,24.717,24.717,0,0,1,21.961-.048c.453.211.771.705,1.166,1.051a1.306,1.306,0,0,0,.446.242,5.617,5.617,0,0,1,1.412.446,24.656,24.656,0,0,1,10.542,15.6c.208.949.328,1.917.488,2.876v1.269a2.483,2.483,0,0,1-2.774,1.722c-.714-.041-1.433-.009-2.15-.006-.171,0-.341.021-.542.033v.388c0,2.7,0,5.4,0,8.1a2.158,2.158,0,1,1-4.309-.023c0-.732,0-1.463,0-2.195,0-.927,0-1.854,0-2.78,0-.307-.139-.558-.441-.5-.166.03-.341.3-.409.492a2.41,2.41,0,0,0-.022.677,2.584,2.584,0,0,1-2.611,2.494,2.532,2.532,0,0,1-2.577-2.511c-.014-.666,0-1.333,0-2,0-.711,0-1.421,0-2.128h-7.832c.142.252.25.448.363.643q5.125,8.862,10.249,17.725a2.185,2.185,0,0,1-.867,3.269,23.694,23.694,0,0,1-6.6,2.171c-.942.161-1.894.266-2.842.4m-2.893-25.739c-1.135-1.963-2.225-3.847-3.314-5.732a4.5,4.5,0,0,1-.279-.513.722.722,0,0,1,1.23-.733,2.737,2.737,0,0,1,.259.412q1.565,2.7,3.128,5.4c.076.131.162.255.272.429l9.122-15.77a7.308,7.308,0,0,0-3.845-1.765c-1.321-.136-2.628-.423-3.932-.691a6.5,6.5,0,0,0-2.659-.012c-1.416.289-2.837.579-4.27.748a7.426,7.426,0,0,0-3.569,1.712l2.864,4.956c.325.563.663,1.119.969,1.692a.721.721,0,0,1-.272,1.014.745.745,0,0,1-.98-.276c-.065-.093-.115-.2-.172-.294q-1.71-2.954-3.42-5.908c-.087-.15-.183-.294-.27-.433a7.231,7.231,0,0,0-3.5,2.524,25.876,25.876,0,0,1-2.349,2.793,6.57,6.57,0,0,0-1.585,2.755,16.408,16.408,0,0,1-.93,2.711,7.384,7.384,0,0,0-.845,4.421c.066.441.148.6.623.6,5.719-.017,11.438-.011,17.157-.012.159,0,.317-.013.568-.024m10.416,18-9.134-15.787-9.18,15.87c.805.466,1.57.921,2.347,1.354.423.236.592.562.439.953a.711.711,0,0,1-1.006.389,5.968,5.968,0,0,1-.922-.442c-.525-.318-1.032-.666-1.57-1.016-.252.432-.49.837-.724,1.246-.406.709-.307,1.044.42,1.39a23.474,23.474,0,0,0,15.143,1.8,22.337,22.337,0,0,0,5.339-1.838c.5-.246.7-.59.506-1-.262-.547-.591-1.062-.9-1.609-.312.213-.571.381-.821.561a7.367,7.367,0,0,1-3.467,1.327c-1.352.171-2.692.445-4.027.721a7.144,7.144,0,0,1-3.194-.018c-.742-.182-1.486-.357-2.229-.536a.729.729,0,1,1,.3-1.419c.574.114,1.149.234,1.71.4a6.68,6.68,0,0,0,3.562.043,22.841,22.841,0,0,1,3.453-.6,7.136,7.136,0,0,0,3.96-1.783m1.48-16.514c0,1.448-.014,2.813.007,4.177a1.045,1.045,0,0,0,1.073,1.04,1.114,1.114,0,0,0,1.168-1.014c.023-.258,0-.52.015-.78a1.9,1.9,0,1,1,3.8.051c.01.927,0,1.854,0,2.781,0,.781-.009,1.562.006,2.342a.686.686,0,1,0,1.37-.013c.006-.13,0-.26,0-.39V637.7c0-1.045.114-1.156,1.159-1.227.132-.009.354-.147.365-.246a7.09,7.09,0,0,0-.39-3.871c-.543-1.209-.956-2.48-1.376-3.74a6.411,6.411,0,0,0-1.217-2.252c-1.045-1.2-2.078-2.412-3.071-3.655a7.58,7.58,0,0,0-3.111-2.033l-9.143,15.807h.669q7.016,0,14.031,0c.6,0,.9.246.909.714s-.3.734-.889.744c-.652.012-1.3,0-1.956,0h-3.42M631.255,653.73l9.13-15.783H622.637c-.081,0-.184-.03-.24.008-.124.083-.305.189-.322.306a7.006,7.006,0,0,0,.562,4.177,21.293,21.293,0,0,1,1.159,3.195,6.857,6.857,0,0,0,1.612,2.794,27.144,27.144,0,0,1,2.377,2.833,7.245,7.245,0,0,0,3.469,2.471m20.291-35.084c.261-.447.491-.838.718-1.232.426-.74.333-1.063-.426-1.424a23.47,23.47,0,0,0-14.666-1.882,22.5,22.5,0,0,0-5.815,1.939c-.507.248-.684.619-.463,1.059.262.519.574,1.012.877,1.539.317-.213.605-.395.881-.594a7.135,7.135,0,0,1,3.381-1.283,36.422,36.422,0,0,0,3.741-.656,8.275,8.275,0,0,1,3.862.021,27.356,27.356,0,0,0,3.307.585,7.613,7.613,0,0,1,3.883,1.44c.22.166.456.311.719.489m-30.974,17.821a4.938,4.938,0,0,0,0-.693,7.808,7.808,0,0,1,.867-4.665,14.783,14.783,0,0,0,.905-2.564,8.142,8.142,0,0,1,2.144-3.7,22.478,22.478,0,0,0,2.091-2.5,7.378,7.378,0,0,1,2.992-2.505c.306-.134.6-.295.928-.456-.252-.436-.477-.829-.705-1.221-.45-.773-.748-.845-1.481-.334a23.565,23.565,0,0,0-8.89,11.624,22.9,22.9,0,0,0-1.27,6.037c-.048.616.165.94.685.975.565.038,1.134.008,1.736.008m42.143.015c.485,0,.906,0,1.327,0,.976,0,1.2-.24,1.114-1.191a23.569,23.569,0,0,0-5.686-13.471,22.76,22.76,0,0,0-4.581-4.079c-.48-.325-.856-.331-1.119.05-.346.5-.63,1.046-.953,1.592.363.175.666.332.977.47a7.372,7.372,0,0,1,2.891,2.406,34.461,34.461,0,0,0,2.352,2.792,8.013,8.013,0,0,1,1.859,3.213,34.842,34.842,0,0,0,1.251,3.422,7.2,7.2,0,0,1,.621,3.845c-.039.287-.033.58-.052.953M620.6,637.948c-.61,0-1.147-.014-1.683,0a.718.718,0,0,0-.77.851c.019.422.058.844.114,1.262a23.6,23.6,0,0,0,6.121,13.122,22.8,22.8,0,0,0,4.06,3.494c.457.309.832.326,1.084-.03.359-.508.649-1.064.978-1.616-.214-.106-.355-.188-.5-.249a8.039,8.039,0,0,1-3.686-3.075,16.641,16.641,0,0,0-1.9-2.217,7.942,7.942,0,0,1-1.969-3.257c-.375-1.2-.806-2.4-1.293-3.56a7.15,7.15,0,0,1-.6-3.75c.039-.3.033-.609.05-.979" transform="translate(4190.755 2238.992)"/>
    <path id="Path_658" data-name="Path 658" d="M725.571,653.817a3.625,3.625,0,1,1,3.655-3.612,3.639,3.639,0,0,1-3.655,3.612m.011-1.464a2.161,2.161,0,1,0-2.178-2.159,2.172,2.172,0,0,0,2.178,2.159" transform="translate(4104.083 2210.693)"/>
    <path id="Path_659" data-name="Path 659" d="M694.723,705.893a3.63,3.63,0,1,1-3.623-3.629,3.62,3.62,0,0,1,3.623,3.629m-1.467.029a2.164,2.164,0,1,0-2.2,2.128,2.139,2.139,0,0,0,2.2-2.128" transform="translate(4132.468 2164.834)"/>
    <path id="Path_660" data-name="Path 660" d="M684.255,675.536a2.177,2.177,0,1,1,2.189-2.163,2.186,2.186,0,0,1-2.189,2.163m.718-2.124a.721.721,0,1,0-.768.656.725.725,0,0,0,.768-.656" transform="translate(4136.915 2190.427)"/>
    <path id="Path_661" data-name="Path 661" d="M776.736,650.456a2.183,2.183,0,1,1-.008,4.367,2.183,2.183,0,0,1,.008-4.367m.03,2.9a.736.736,0,0,0,.7-.739.72.72,0,0,0-1.438.043.744.744,0,0,0,.742.7" transform="translate(4060.762 2207.491)"/>
    <path id="Path_662" data-name="Path 662" d="M655.811,721.115a2.173,2.173,0,1,1-2.209,2.125,2.15,2.15,0,0,1,2.209-2.125m-.024,2.876a.7.7,0,1,0-.715-.7.685.685,0,0,0,.715.7" transform="translate(4160.348 2149.313)"/>
    <path id="Path_663" data-name="Path 663" d="M747.936,700.226a2.186,2.186,0,1,1,2.179-2.185,2.209,2.209,0,0,1-2.179,2.185m.709-2.2a.72.72,0,1,0-.7.736.743.743,0,0,0,.7-.736" transform="translate(4084.49 2170.113)"/>
    <path id="Path_664" data-name="Path 664" d="M732.454,816.5a3.635,3.635,0,1,1-3.654-3.6,3.611,3.611,0,0,1,3.654,3.6m-3.643-2.14a2.16,2.16,0,1,0,.021,4.321,2.16,2.16,0,1,0-.021-4.321" transform="translate(4101.41 2073.744)"/>
    <path id="Path_665" data-name="Path 665" d="M747.939,782.526a2.183,2.183,0,1,1-2.2,2.153,2.2,2.2,0,0,1,2.2-2.153m.706,2.179a.721.721,0,0,0-1.441,0,.721.721,0,0,0,1.441,0" transform="translate(4084.49 2098.75)"/>
    <path id="Path_666" data-name="Path 666" d="M774.526,833.7a2.171,2.171,0,1,1,2.232-2.108,2.185,2.185,0,0,1-2.232,2.108m-.67-2.206a.715.715,0,0,0,.683.739.7.7,0,1,0,.072-1.405.716.716,0,0,0-.755.666" transform="translate(4062.548 2060.193)"/>
    <path id="Path_667" data-name="Path 667" d="M820.147,703.369a3.625,3.625,0,1,1-3.634,3.622,3.6,3.6,0,0,1,3.634-3.622m.005,1.464A2.161,2.161,0,1,0,822.31,707a2.146,2.146,0,0,0-2.157-2.163" transform="translate(4026.214 2163.925)"/>
    <path id="Path_668" data-name="Path 668" d="M815.115,677.319a2.178,2.178,0,1,1-2.153-2.183,2.154,2.154,0,0,1,2.153,2.183m-1.47,0a.707.707,0,1,0-.719.692.687.687,0,0,0,.719-.692" transform="translate(4030.952 2187.17)"/>
    <path id="Path_669" data-name="Path 669" d="M784.3,719.978a2.175,2.175,0,1,1,2.168,2.17,2.149,2.149,0,0,1-2.168-2.17m2.2.7a.7.7,0,1,0-.726-.684.686.686,0,0,0,.726.684" transform="translate(4052.734 2152.042)"/>
    <path id="Path_670" data-name="Path 670" d="M677.433,794.121a3.623,3.623,0,1,1,3.69-3.58,3.645,3.645,0,0,1-3.69,3.58m.013-1.464a2.159,2.159,0,1,0-2.147-2.19,2.178,2.178,0,0,0,2.147,2.19" transform="translate(4143.691 2095.169)"/>
    <path id="Path_671" data-name="Path 671" d="M700.821,762.18A2.188,2.188,0,1,1,703,764.355a2.2,2.2,0,0,1-2.181-2.174m2.9,0a.745.745,0,0,0-.707-.733.733.733,0,0,0-.727.708.725.725,0,0,0,.7.728.734.734,0,0,0,.732-.7" transform="translate(4121.47 2117.31)"/>
    <path id="Path_672" data-name="Path 672" d="M656.524,768.214a2.188,2.188,0,1,1,2.148,2.207,2.2,2.2,0,0,1-2.148-2.207m2.194-.7a.718.718,0,1,0,.709.731.744.744,0,0,0-.709-.731" transform="translate(4157.942 2112.315)"/>
  </g>
</svg>
