<svg xmlns="http://www.w3.org/2000/svg" width="37.329" height="25.003" viewBox="0 0 37.329 25.003">
  <g id="Group_208" data-name="Group 208" transform="translate(0.5 0.5)">
    <g id="Group_209" data-name="Group 209">
      <path id="Path_712" data-name="Path 712" d="M14.856,22.982a7.428,7.428,0,1,0-8.667,7.325v.838H4.834a1.239,1.239,0,0,0,0,2.479H6.189v1.783a1.239,1.239,0,0,0,2.479,0V33.624h1.354a1.239,1.239,0,0,0,0-2.479H8.668v-.838a7.406,7.406,0,0,0,6.189-7.325m-2.419,0a5.009,5.009,0,1,1-5.009-5.009,5.014,5.014,0,0,1,5.009,5.009" transform="translate(0 -12.643)" fill="none" stroke="#000" stroke-width="1"/>
      <path id="Path_713" data-name="Path 713" d="M84.208,1.134l-.019-.124c0-.018-.008-.035-.013-.055s-.011-.043-.016-.06S84.145.847,84.14.833s-.015-.042-.021-.057S84.1.744,84.1.725s-.019-.041-.031-.064l-.029-.05C84.025.593,84.013.574,84,.558S83.983.53,83.962.5L83.93.46C83.916.443,83.9.427,83.887.411L83.835.332,83.775.3l-.03-.026L83.7.247,83.653.209,83.6.179c-.017-.011-.035-.021-.061-.035L83.493.12,83.428.091,83.4.08c-.025-.01-.051-.019-.076-.027L83.273.041l-.06-.015L83.162.017c-.027,0-.054-.009-.07-.01l-.059,0c-.025,0-.049,0-.075,0H77.654a1.256,1.256,0,0,0,0,2.511h2.274l-1.65,1.65a7.586,7.586,0,1,0,3.182,6.178,7.483,7.483,0,0,0-1.406-4.4l1.65-1.65V6.561a1.256,1.256,0,0,0,2.511,0v-5.3c0-.041,0-.082-.006-.122M73.875,5.207a5.13,5.13,0,1,1-3.63,1.5,5.119,5.119,0,0,1,3.63-1.5M83.546.819ZM83.4.67ZM83.336.628Z" transform="translate(-47.885)" fill="none" stroke="#000" stroke-width="1"/>
    </g>
  </g>
</svg>
