<svg xmlns="http://www.w3.org/2000/svg" width="50.091" height="50" viewBox="0 0 50.091 50">
  <g id="Group_78" data-name="Group 78" transform="translate(-4637 -2851.379)">
    <path id="Path_649" data-name="Path 649" d="M57.961,709.2a5.433,5.433,0,0,1-1.005-.567,2,2,0,0,1,0-2.99q2.307-2.327,4.634-4.634a4.28,4.28,0,0,1,.436-.336c-.276-.422-.885-.721-.379-1.206.458-.439.741.086,1.013.293l1.887-1.909a11.427,11.427,0,0,1-.8-1.782,3.119,3.119,0,0,1,.814-3.075c1.064-1.124,2.167-2.213,3.281-3.289a3.452,3.452,0,0,1,3.094-.9c.025-.035.044-.05.042-.061a4.185,4.185,0,0,1,1.682-3.891,25.311,25.311,0,0,0,1.937-1.934,3.742,3.742,0,0,1,3.693-1.381,9.087,9.087,0,0,1-.044-.937,3.489,3.489,0,0,1,1.038-2.359c.913-.909,1.866-1.782,2.722-2.741a3.629,3.629,0,0,1,5.359-.3c.6-.54,1.191-1.091,1.8-1.623a36.425,36.425,0,0,1,6.32-4.326.876.876,0,0,1,.741-.008c.308.184.177.5.026.776a35.694,35.694,0,0,1-5.5,7.573l-.39.413a13.6,13.6,0,0,1,.863,1.931,3.056,3.056,0,0,1-.761,3c-1.1,1.179-2.248,2.317-3.418,3.427a3.416,3.416,0,0,1-3.068.808c.01.2.015.369.026.538a3.459,3.459,0,0,1-1.057,2.785c-.956.958-1.923,1.9-2.868,2.873a3.658,3.658,0,0,1-3.4,1.109,8.891,8.891,0,0,1,.044.947,3.555,3.555,0,0,1-1.088,2.388c-.892.883-1.817,1.737-2.655,2.67a3.608,3.608,0,0,1-5.316.359l-1.937,1.975c.136.268.776.558.269,1.047-.485.467-.758-.132-1.118-.356l-2.67,2.666c-.634.634-1.243,1.3-1.911,1.892a18.837,18.837,0,0,1-1.547,1.136Zm12.278-19.4a2.328,2.328,0,0,0-1.759.719c-1.032,1.02-2.065,2.039-3.077,3.078a2.414,2.414,0,0,0,0,3.471q1.478,1.53,3.008,3.008a2.4,2.4,0,0,0,3.433.022q1.606-1.538,3.146-3.147a2.383,2.383,0,0,0,0-3.395c-1-1.048-2.042-2.061-3.075-3.08a2.3,2.3,0,0,0-1.678-.677m7.4-7.311a2.5,2.5,0,0,0-1.873.744c-1.02,1.009-2.04,2.018-3.042,3.045a2.413,2.413,0,0,0-.006,3.5q1.467,1.507,2.975,2.974a2.412,2.412,0,0,0,3.469.029q1.586-1.525,3.113-3.112a2.4,2.4,0,0,0,.007-3.433c-.994-1.034-2.021-2.037-3.041-3.046a2.381,2.381,0,0,0-1.6-.7m12.635-1.85a2.327,2.327,0,0,0-.706-1.715c-1-1.01-1.992-2.02-3.009-3.008a2.421,2.421,0,0,0-3.471,0q-1.561,1.516-3.079,3.077a2.413,2.413,0,0,0-.01,3.469q1.482,1.526,3.008,3.009a2.4,2.4,0,0,0,3.431.034c1.084-1.036,2.132-2.11,3.182-3.18a2.27,2.27,0,0,0,.654-1.686m-27.55,20.711c-1,1-1.993,1.986-2.983,2.975-.7.7-1.413,1.4-2.106,2.113a.986.986,0,0,0-.153,1.214.9.9,0,0,0,1.044.45,1.648,1.648,0,0,0,.687-.429c1.566-1.546,3.119-3.107,4.673-4.664a2.386,2.386,0,0,0,.185-.223l-1.348-1.436m31.523-30.1a29.156,29.156,0,0,0-6.047,4.631l1.371,1.438a30.6,30.6,0,0,0,4.676-6.069M65.514,698.754l-1.882,1.873,1.229,1.3,1.925-1.914-1.272-1.256" transform="translate(4590.683 2192.184)"/>
    <path id="Path_650" data-name="Path 650" d="M0,650.459a13.063,13.063,0,0,1,1.1-1.514c1.391-1.444,2.826-2.845,4.244-4.264.113-.113.221-.232.344-.362-.235-.357-.843-.654-.317-1.141.466-.431.735.124,1.022.313L8.263,641.6a12.315,12.315,0,0,1-.818-1.88,3.106,3.106,0,0,1,.84-3.023c1.066-1.123,2.164-2.217,3.282-3.289a3.311,3.311,0,0,1,2.836-.9c.092.012.185.014.3.022a10.109,10.109,0,0,1,.01-1.334,3.42,3.42,0,0,1,1.045-2c.94-.927,1.885-1.851,2.8-2.8a3.629,3.629,0,0,1,3.167-1.187c.078.008.158,0,.267,0,0-.376-.022-.744,0-1.108a3.226,3.226,0,0,1,.959-2.087c1.032-1.043,2.058-2.093,3.113-3.112a3.468,3.468,0,0,1,4.823-.129c.06.051.122.1.115.093,1.472-1.187,2.876-2.407,4.373-3.5,1.207-.88,2.52-1.619,3.806-2.386a.884.884,0,0,1,.742-.037c.315.169.237.518.067.777-1.088,1.66-2.14,3.347-3.3,4.956-.807,1.118-1.768,2.125-2.674,3.2a3.34,3.34,0,0,1,.9,3.345,4.353,4.353,0,0,1-.921,1.629c-.961,1.063-2.006,2.051-3.028,3.057a3.542,3.542,0,0,1-3.269.982c.009.184.013.341.025.5a3.406,3.406,0,0,1-1,2.759c-1.006,1.023-2.024,2.034-3.042,3.045a3.462,3.462,0,0,1-2.837,1.047c-.143-.011-.285-.016-.479-.027a3.912,3.912,0,0,1-1.506,3.819c-.816.749-1.573,1.562-2.359,2.344a3.485,3.485,0,0,1-5.035.238.685.685,0,0,0-.093-.06l-1.949,1.968c.189.281.786.586.28,1.065-.457.431-.742-.087-1.1-.364-.123.117-.25.234-.372.356-1.465,1.464-3,2.868-4.373,4.41C2.6,653.4.568,653.154,0,651.242v-.783m19.393-11.484a2.254,2.254,0,0,0-.669-1.68c-1.015-1.037-2.031-2.074-3.078-3.077a2.392,2.392,0,0,0-3.431.016q-1.582,1.529-3.111,3.113a2.4,2.4,0,0,0,.005,3.432q1.492,1.55,3.044,3.041a2.4,2.4,0,0,0,3.435-.014c1.053-1.021,2.083-2.067,3.113-3.111a2.322,2.322,0,0,0,.692-1.721m1.739-1.744a2.468,2.468,0,0,0,1.753-.719c1.045-1.03,2.092-2.059,3.111-3.115a2.4,2.4,0,0,0,0-3.435q-1.492-1.551-3.044-3.043a2.4,2.4,0,0,0-3.432.011q-1.583,1.529-3.112,3.114a2.4,2.4,0,0,0,0,3.432c1,1.031,2.024,2.035,3.041,3.047a2.469,2.469,0,0,0,1.685.707m7.308-7.311a2.341,2.341,0,0,0,1.724-.688c1.058-1.04,2.117-2.079,3.145-3.149a2.407,2.407,0,0,0,0-3.4q-1.508-1.568-3.077-3.078a2.393,2.393,0,0,0-3.361-.021q-1.645,1.569-3.214,3.217a2.375,2.375,0,0,0,.03,3.356c1.008,1.043,2.043,2.06,3.076,3.079a2.335,2.335,0,0,0,1.676.682m-22,15.165c-.075.068-.149.127-.216.194q-2.369,2.368-4.736,4.737a2.118,2.118,0,0,0-.228.254.96.96,0,0,0-.063,1.1.838.838,0,0,0,.945.455,1.743,1.743,0,0,0,.783-.431c1.57-1.542,3.12-3.1,4.674-4.661a2.658,2.658,0,0,0,.194-.233l-1.354-1.417m25.453-25.458,1.345,1.435c1.527-1.383,4.605-5.382,4.75-6.181a32.7,32.7,0,0,0-6.094,4.745m-22.669,22.8-1.872,1.853,1.255,1.305,1.9-1.873-1.286-1.285" transform="translate(4637 2238.493)"/>
  </g>
</svg>
