<svg xmlns="http://www.w3.org/2000/svg" xmlns:xlink="http://www.w3.org/1999/xlink" width="15.611" height="36.636" viewBox="0 0 15.611 36.636">
  <defs>
    <clipPath id="clip-path">
      <rect id="Rectangle_227" data-name="Rectangle 227" width="15.611" height="36.636" transform="translate(0 0)" fill="none"/>
    </clipPath>
  </defs>
  <g id="Group_204" data-name="Group 204" transform="translate(0 0)">
    <g id="Group_203" data-name="Group 203" clip-path="url(#clip-path)">
      <path id="Path_696" data-name="Path 696" d="M13.7,0h-.436a1.908,1.908,0,0,0-1.906,1.9V3.483H3.411A3.415,3.415,0,0,0,0,6.894v26.33a3.415,3.415,0,0,0,3.411,3.411H12.2a3.415,3.415,0,0,0,3.412-3.411V6.894c0-.019,0-.037,0-.06l0-4.929A1.908,1.908,0,0,0,13.7,0m.9,6.752-.005.035L14.6,33.224a2.408,2.408,0,0,1-2.4,2.4H3.411a2.407,2.407,0,0,1-2.4-2.4V6.894a2.406,2.406,0,0,1,2.4-2.4h8.96V1.9a.9.9,0,0,1,.9-.9H13.7a.9.9,0,0,1,.9.9Z" fill="#272525"/>
      <path id="Path_697" data-name="Path 697" d="M10.469,6.169H5.141A2.878,2.878,0,0,0,2.266,9.045v3.814a2.878,2.878,0,0,0,2.875,2.875h5.328a2.879,2.879,0,0,0,2.875-2.875V9.045a2.879,2.879,0,0,0-2.875-2.876m2.2,6.69a2.207,2.207,0,0,1-2.2,2.2H5.141a2.207,2.207,0,0,1-2.2-2.2V9.045a2.207,2.207,0,0,1,2.2-2.2h5.328a2.207,2.207,0,0,1,2.2,2.2Z" fill="#272525"/>
      <path id="Path_698" data-name="Path 698" d="M10.469,19.772H5.141a2.877,2.877,0,0,0-2.875,2.875v8.175A2.877,2.877,0,0,0,5.141,33.7h5.328a2.878,2.878,0,0,0,2.875-2.875V22.647a2.878,2.878,0,0,0-2.875-2.875m2.2,11.05a2.207,2.207,0,0,1-2.2,2.2H5.141a2.207,2.207,0,0,1-2.2-2.2V22.647a2.207,2.207,0,0,1,2.2-2.2h5.328a2.207,2.207,0,0,1,2.2,2.2Z" fill="#272525"/>
      <path id="Path_699" data-name="Path 699" d="M5.939,18.787a.9.9,0,0,0,.9-.9v-.266a.9.9,0,0,0-.9-.9H3.332a.9.9,0,0,0-.9.9v.266a.9.9,0,0,0,.9.9Zm-3.169-.9v-.266a.564.564,0,0,1,.562-.564H5.939a.563.563,0,0,1,.564.564v.266a.563.563,0,0,1-.564.564H3.332a.564.564,0,0,1-.562-.564" fill="#272525"/>
      <path id="Path_700" data-name="Path 700" d="M12.277,18.787a.9.9,0,0,0,.9-.9v-.266a.9.9,0,0,0-.9-.9H9.67a.9.9,0,0,0-.9.9v.266a.9.9,0,0,0,.9.9Zm-3.17-.9v-.266a.564.564,0,0,1,.563-.564h2.607a.564.564,0,0,1,.563.564v.266a.564.564,0,0,1-.563.564H9.67a.564.564,0,0,1-.563-.564" fill="#272525"/>
    </g>
  </g>
</svg>
