<svg xmlns="http://www.w3.org/2000/svg" width="50" height="53.549" viewBox="0 0 50 53.549">
  <g id="Group_43" data-name="Group 43" transform="translate(-4746.157 -1160.695)">
    <path id="Path_637" data-name="Path 637" d="M792.122,576.555a4.317,4.317,0,0,1,1.784,1.3,17.852,17.852,0,0,1,2.7,3.769,9.64,9.64,0,0,1-.38,10.126,42.366,42.366,0,0,1-2.833,3.668.416.416,0,0,1-.152.141c-.778.3-.774.93-.741,1.616.039.8.017,1.6.006,2.4-.01.68-.339,1.055-.9,1.056s-.881-.375-.888-1.054c-.009-1.045-.012-2.091,0-3.136a.564.564,0,0,0-.352-.615,1.93,1.93,0,0,1-.538-.406,18.415,18.415,0,0,1-2.963-3.831,9.72,9.72,0,0,1,.139-10.629,31.886,31.886,0,0,1,2.894-3.684,4.5,4.5,0,0,1,1.175-.726Zm-1.405,17.068v-.547q0-4.937,0-9.875c0-.859.288-1.281.874-1.292.6-.011.914.434.914,1.314q0,4.938,0,9.875c0,.176.017.352.032.632a13.508,13.508,0,0,0,3.19-5.173,7.1,7.1,0,0,0,.175-3.66,13.027,13.027,0,0,0-3.827-6.347c-.354-.357-.719-.244-1.048.092a16.03,16.03,0,0,0-2.735,3.61,8.75,8.75,0,0,0-1.086,3.245c-.342,3.332,1.34,5.816,3.508,8.126" transform="translate(3981.335 584.14)"/>
    <path id="Path_638" data-name="Path 638" d="M673.191,769.92l4.318-3.6c1.445-1.205,2.868-2.438,4.341-3.607a4,4,0,0,1,6.37,1.985,3.908,3.908,0,0,1-1.108,4.064l-8.52,8.632c-1.371,1.389-2.749,2.772-4.109,4.171a5.254,5.254,0,0,1-3.971,1.655c-5.907-.02-11.815,0-17.722-.012a3.646,3.646,0,0,0-3.045,1.535c-.858,1.12-1.7,2.251-2.544,3.383a2.995,2.995,0,0,1-5.411-.933c-1.051-3.5-2.12-6.991-3.154-10.495a4.933,4.933,0,0,1,1.264-5.059,17.327,17.327,0,0,1,10.509-5.529,10.255,10.255,0,0,1,6.618.814,3.052,3.052,0,0,1,.706.441,2.915,2.915,0,0,0,2.309.7c2.962-.029,5.925.025,8.887-.025a4.685,4.685,0,0,1,4.262,1.881m-11.715,11.507c3.032,0,6.064-.011,9.1.006a3.428,3.428,0,0,0,2.611-1.1c.956-.99,1.93-1.964,2.9-2.943q4.848-4.911,9.7-9.819a2.326,2.326,0,0,0,.79-2.009,2.118,2.118,0,0,0-1.4-1.8,2.173,2.173,0,0,0-2.3.4q-4.374,3.651-8.739,7.311a1.017,1.017,0,0,0-.3.653,4.026,4.026,0,0,1-3.845,3.948c-3.833.041-7.667.018-11.5.013a.87.87,0,0,1-.965-.873c-.009-.549.359-.887.984-.9.139,0,.279,0,.418,0q5.333,0,10.665,0a2.238,2.238,0,1,0,.029-4.47c-3.416-.011-6.831-.016-10.247.005A4.059,4.059,0,0,1,657,769.06a9.031,9.031,0,0,0-2.328-1.118,9.2,9.2,0,0,0-4.044-.059,15.737,15.737,0,0,0-9.35,4.89,3.393,3.393,0,0,0-.888,3.591q1.553,5.091,3.068,10.194c.165.554.419,1.008,1.032,1.117a1.334,1.334,0,0,0,1.346-.708c.83-1.119,1.655-2.243,2.524-3.333a5.372,5.372,0,0,1,4.595-2.228c2.838.085,5.68.022,8.521.022" transform="translate(4107.758 424.765)"/>
    <path id="Path_639" data-name="Path 639" d="M680.7,643.621c-.375.765.066,1.046.474,1.365.81.633,1.609,1.28,2.4,1.932a.9.9,0,1,1-1.119,1.386c-.914-.726-1.816-1.467-2.734-2.188a.591.591,0,0,0-.448-.141,12.464,12.464,0,0,1-4.494.443,11.575,11.575,0,0,1-5.1-1.359,10,10,0,0,1-4.794-6.011,27.836,27.836,0,0,1-.923-3.8,2.313,2.313,0,0,1,1.759-2.662,13.934,13.934,0,0,1,9.305,1.145,9.968,9.968,0,0,1,4.575,5.819c.469,1.357.756,2.776,1.1,4.067m-3.094.808c-.088-.08-.172-.164-.264-.238q-2.707-2.181-5.416-4.359c-.991-.8-1.988-1.588-2.967-2.4a.865.865,0,0,1-.157-1.254.882.882,0,0,1,1.26-.137c.129.089.248.192.37.29l7.695,6.2c.156.125.315.245.561.436a13.233,13.233,0,0,0-2.366-5.8,7.114,7.114,0,0,0-2.354-1.95,12.407,12.407,0,0,0-7.647-.945c-.464.06-.657.4-.583.882.05.327.1.654.17.978a12.1,12.1,0,0,0,2.433,5.592c2.465,2.9,5.781,3.069,9.266,2.711" transform="translate(4085.796 536.195)"/>
    <path id="Path_640" data-name="Path 640" d="M875.341,643.4a10.647,10.647,0,0,1-.656,3.993,7.618,7.618,0,0,1-5.885,4.793,7.437,7.437,0,0,1-3.352.268c-.116-.026-.3.123-.412.236-.792.834-1.569,1.681-2.355,2.519-.512.546-1.035.634-1.447.256-.432-.4-.388-.9.132-1.457.817-.881,1.628-1.768,2.458-2.638a.957.957,0,0,0,.293-.825,11.748,11.748,0,0,1,.488-4.49,7.557,7.557,0,0,1,5.929-5.22,18.34,18.34,0,0,1,2.628-.4,2.01,2.01,0,0,1,2.177,1.92c.02.347,0,.7,0,1.045m-8.358,7.2.052.118c.619-.132,1.248-.23,1.855-.4a5.712,5.712,0,0,0,4.151-3.62,10.871,10.871,0,0,0,.528-4.065c-.01-.319-.148-.448-.454-.406-.62.085-1.245.146-1.859.266a6.064,6.064,0,0,0-5.248,5.274c-.077.4-.091.8-.133,1.206a1,1,0,0,0,.467-.321q1.781-1.912,3.562-3.823c.465-.5.966-.557,1.373-.189s.392.908-.083,1.42q-1.777,1.915-3.558,3.826c-.22.237-.436.478-.653.717" transform="translate(3916.312 529.19)"/>
  </g>
</svg>
