<svg xmlns="http://www.w3.org/2000/svg" width="50.387" height="50" viewBox="0 0 50.387 50">
  <g id="Group_40" data-name="Group 40" transform="translate(-4730.317 -914)">
    <path id="Path_625" data-name="Path 625" d="M731.433,133.047q.005-8.324.011-16.647c0-.811,0-1.623,0-2.473h1.666v1.587h1.659c.012-.13.033-.255.033-.38,0-4,.018-8.007,0-12.01a5.584,5.584,0,0,0-4.591-5.724,22.208,22.208,0,0,0-7.584,0,5.54,5.54,0,0,0-4.582,5.578c-.043,4.1-.013,8.2-.012,12.3,0,.064.014.128.026.233h1.631v-1.586H721.4v19.12h-1.673c-.007-.8-.018-1.594-.018-2.391q0-6.4,0-12.793v-.637h-3.317a2.459,2.459,0,0,1-.04-.29c0-4.736-.053-9.473.035-14.208a7.311,7.311,0,0,1,6.886-7.128,45,45,0,0,1,6.778.073,7.265,7.265,0,0,1,6.4,6.909c.075,4.767.033,9.537.039,14.305a3.125,3.125,0,0,1-.036.32h-3.322v.607q0,7.324,0,14.648c0,.195-.012.39-.018.585Z" transform="translate(4029.09 830.953)"/>
    <path id="Path_626" data-name="Path 626" d="M891.122,177.708q0-7.809-.008-15.618a1.264,1.264,0,0,1,.028-.175h1.628v1.591h1.665c.009-.135.027-.276.028-.416,0-3.384.008-6.768,0-10.152a4.036,4.036,0,0,0-2.424-3.962,5.462,5.462,0,0,0-2.089-.422c-2.212-.052-4.425-.019-6.638-.019h-.57v-1.6c.044-.029.057-.045.07-.045,2.719.012,5.446-.092,8.156.07A5.57,5.57,0,0,1,896.1,152.3c.088,4.276.023,8.555.023,12.886h-3.332v12.524Z" transform="translate(3884.555 786.292)"/>
    <path id="Path_627" data-name="Path 627" d="M601.379,152.075a14.494,14.494,0,0,1,1.027-2.552,5.258,5.258,0,0,1,4.408-2.552c2.634-.082,5.273-.021,7.956-.021v1.635h-.525c-2.2,0-4.392.007-6.588,0a4.389,4.389,0,0,0-3.739,1.678,4.028,4.028,0,0,0-.854,2.493c-.017,3.546-.007,7.091-.006,10.637a1.157,1.157,0,0,0,.031.171h1.629V161.97h1.651a.879.879,0,0,1,.035.175q0,7.807-.007,15.614h-1.673v-12.5h-3.345Z" transform="translate(4128.938 786.241)"/>
    <path id="Path_628" data-name="Path 628" d="M690.473,278c.014-.209.041-.419.041-.629q0-7.274,0-14.548v-.615h1.673v1.611h3.343v1.675h-3.287c-.017.159-.042.282-.042.4q0,5.858,0,11.716a3.513,3.513,0,0,0,.041.385Z" transform="translate(4051.552 686.003)"/>
    <path id="Path_629" data-name="Path 629" d="M860.392,277.9a3.573,3.573,0,0,0,.041-.385q0-5.834,0-11.667c0-.129-.012-.257-.022-.439H857.1v-1.654h3.327V262.1h1.692v.629q0,7.274,0,14.548c0,.21.027.419.041.629Z" transform="translate(3906.823 686.097)"/>
    <path id="Path_630" data-name="Path 630" d="M786.3,277.879c.014-.209.041-.419.041-.628q0-7.27,0-14.541v-.64h1.685v.64q0,7.27,0,14.541c0,.209.027.419.041.628Z" transform="translate(3968.315 686.121)"/>
    <rect id="Rectangle_69" data-name="Rectangle 69" width="1.673" height="12.465" transform="translate(4737.893 951.535)"/>
    <rect id="Rectangle_70" data-name="Rectangle 70" width="1.673" height="12.464" transform="translate(4771.445 951.536)"/>
    <path id="Path_631" data-name="Path 631" d="M754.167,11.657a5.868,5.868,0,0,1-5.875-5.846,5.882,5.882,0,0,1,11.763.016,5.862,5.862,0,0,1-5.887,5.831m-.018-1.673a4.191,4.191,0,0,0,4.219-4.128,4.2,4.2,0,0,0-8.392-.047,4.193,4.193,0,0,0,4.173,4.176" transform="translate(4001.333 914)"/>
    <path id="Path_632" data-name="Path 632" d="M882.517,68.834a5.038,5.038,0,1,1,5.024,5.016,5.065,5.065,0,0,1-5.024-5.016m1.688.022a3.354,3.354,0,1,0,3.323-3.338,3.356,3.356,0,0,0-3.323,3.338" transform="translate(3884.748 858.486)"/>
    <path id="Path_633" data-name="Path 633" d="M636.979,68.852a5.038,5.038,0,1,1-5.028-5.011,5.065,5.065,0,0,1,5.028,5.011m-1.689,0a3.354,3.354,0,0,0-6.707,0,3.354,3.354,0,0,0,6.707,0" transform="translate(4106.768 858.488)"/>
  </g>
</svg>
