<svg xmlns="http://www.w3.org/2000/svg" width="50" height="51.723" viewBox="0 0 50 51.723">
  <g id="Group_81" data-name="Group 81" transform="translate(-4669.453 -3005.249)">
    <path id="Path_680" data-name="Path 680" d="M124.579,1197.24c-1.5,0-2.92,0-4.337,0a2.6,2.6,0,0,1-2.814-2.821c0-.413,0-.826,0-1.239.005-.814.292-1.108,1.1-1.111,1.054,0,2.108,0,3.209,0a18.229,18.229,0,0,1,18.081-18.984v-1.705c-.26,0-.521.01-.781,0a.864.864,0,0,1-.912-.859.848.848,0,0,1,.911-.857q3.393-.015,6.786,0a.851.851,0,0,1,.914.854.866.866,0,0,1-.91.861c-.248.011-.5,0-.777,0v1.707a18.223,18.223,0,0,1,18.074,18.982c1.082,0,2.119,0,3.155,0,.874,0,1.147.28,1.15,1.166,0,.467.007.934,0,1.4a2.571,2.571,0,0,1-2.6,2.6c-1.867.017-3.734,0-5.6,0h-.653a3.3,3.3,0,0,1-.369,2.56c-.9,1.933-1.775,3.879-2.642,5.828a2.271,2.271,0,0,0-.193.873c-.019,1.615,0,3.231-.012,4.847a3.743,3.743,0,0,1-1.042,2.75,2.035,2.035,0,0,0-.629,2.064c.729.152.847.712.821,1.4-.034.914,0,1.831-.01,2.747,0,.744-.309,1.06-1.038,1.061q-4.982.006-9.964,0c-.765,0-1.06-.308-1.064-1.089,0-.951,0-1.9,0-2.855,0-.882.16-1.086,1.056-1.3-1.187-1.03-2.36-2.026-3.51-3.048q-7.127-6.329-14.248-12.664a2.893,2.893,0,0,1-1.144-3.182m-1.138-5.211h37.924a18.051,18.051,0,0,0-.011-1.81,23.768,23.768,0,0,0-.41-2.765,16.271,16.271,0,0,0-14.348-12.516c-2.232-.177-4.485-.1-6.729-.1a15.613,15.613,0,0,0-8.991,2.69c-5.089,3.464-7.478,8.341-7.435,14.505m28.466,24.175a5.021,5.021,0,0,0,0-.635,2.424,2.424,0,0,1,.94-2.41,2.333,2.333,0,0,0,.789-1.929c-.006-1.1.061-2.195-.016-3.285a7.915,7.915,0,0,1,.933-4.335c.8-1.54,1.458-3.156,2.177-4.739.516-1.135.2-1.63-1.025-1.631-.233,0-.469.019-.7,0a1.2,1.2,0,0,0-1.281.757c-1.442,2.686-2.917,5.354-4.368,8.035a1.324,1.324,0,0,1-.928.733c-.978.222-1.942.508-2.924.708a2.023,2.023,0,0,1-1.081-.074c-2.672-1.039-5.328-2.12-8-3.169a1.733,1.733,0,0,1-.988-.913c-.9-1.837-1.814-3.663-2.734-5.488a1.351,1.351,0,0,0-1.78-.479c-.493.256-.579.7-.263,1.4q1.41,3.11,2.83,6.216a1.807,1.807,0,0,0,.432.6q5.994,5.214,12.005,10.406a.888.888,0,0,0,.512.231c1.795.017,3.589.01,5.47.01m-17.56-18.947c.849,1.7,1.646,3.319,2.478,4.922a1.349,1.349,0,0,0,.635.572c1.8.749,3.666,1.368,5.418,2.218a5.328,5.328,0,0,0,4.519.282,1.193,1.193,0,0,0,.723-.552c1.25-2.319,2.516-4.629,3.776-6.942.082-.15.151-.307.245-.5Zm-15.164-3.446c-.118,1.5.073,1.705,1.49,1.705h43.62a5.725,5.725,0,0,0,.592-.008.818.818,0,0,0,.795-.744,7.2,7.2,0,0,0,.008-.953Zm33.563,24.156h-8.571v1.656h8.571Zm-22.534-15.783.08-.068q-.91-2.005-1.821-4.011c-.359-.789-.557-.905-1.4-.867-.4.018-.754.175-.812.565a1.2,1.2,0,0,0,.208.913c1.222,1.184,2.493,2.317,3.748,3.467m13.038-30.762h-1.659v1.657h1.659Z" transform="translate(4552.026 1835.596)"/>
  </g>
</svg>
