<svg xmlns="http://www.w3.org/2000/svg" width="50" height="47.977" viewBox="0 0 50 47.977">
  <g id="Group_41" data-name="Group 41" transform="translate(-4473 -934.502)">
    <path id="Path_634" data-name="Path 634" d="M0,72.512a2.037,2.037,0,0,1,.9-1.337,2.814,2.814,0,0,1,1.2-.327q8.912-.031,17.824-.012c1.119,0,1.616.39,2.111,1.628.541-.335,1.091-.648,1.611-1a17.686,17.686,0,0,1,4.667-2.168,1.1,1.1,0,0,0,.836-.828c.142-.531.574-1.068.5-1.548-.061-.422-.652-.759-.991-1.15a9.48,9.48,0,0,1-2.072-4.824c-.212-1.295-.295-2.611-.44-3.965a3.162,3.162,0,0,0-.418.434c-.2.3-.348.624-.54.925a.655.655,0,0,1-.879.3.623.623,0,0,1-.394-.833,4,4,0,0,1,2.161-2.512,1,1,0,0,0,.485-.522,15.6,15.6,0,0,1,2.1-3.947,6.907,6.907,0,0,1,6.458-2.882A7.73,7.73,0,0,1,39.15,49.23a6.338,6.338,0,0,1,2.633,4.759c.123,1.22.007,2.464.008,3.7a1.1,1.1,0,0,0,.088.506,2.446,2.446,0,0,1-.163,2.721,14.931,14.931,0,0,1-1.5,1.577,4.98,4.98,0,0,0-.527.617c-.5.736-1,1.476-1.473,2.233a.937.937,0,0,0-.133.641,5.85,5.85,0,0,0,.7,2.206c.449.566,1.315.791,1.979,1.2q3.683,2.249,7.353,4.519c.1.06.183.137.279.2a3.327,3.327,0,0,1,1.579,3.512c-.132,1.2-.181,2.4-.362,3.592q-.475,3.131-1.082,6.242a6.941,6.941,0,0,1-.681,1.712,1.062,1.062,0,0,1-1.2.642c-.6-.113-1.213-.224-1.8-.4a.621.621,0,0,0-.692.146c-1.829,1.69-3.669,3.369-5.5,5.054a4.74,4.74,0,0,1-5.033.964A78.922,78.922,0,0,0,22.2,92.421a13.5,13.5,0,0,0-2.479.058,13.043,13.043,0,0,1-4.582-.525,4.023,4.023,0,0,1-2.632-2.16c-.05-.114-.3-.2-.462-.2-1.628-.014-3.255-.009-4.883-.009H2.527c-1.569,0-1.99-.29-2.527-1.74ZM22.015,85.776a1.9,1.9,0,0,0,.282.095c3.993.67,7.985,1.343,11.982,1.992a1.094,1.094,0,0,0,.756-.2,2.946,2.946,0,0,0,.777-.862A31.011,31.011,0,0,0,37.4,83.736c.643-1.526,1.173-3.1,1.756-4.65a1.433,1.433,0,0,1,.238-.472.631.631,0,0,1,.841-.134.689.689,0,0,1,.3.923c-.581,1.569-1.147,3.144-1.753,4.7-.136.351-.079.515.234.691.623.351,1.221.747,1.841,1.1a23.039,23.039,0,0,0,4.746,2.255c.963.292,1,.282,1.287-.68a55.66,55.66,0,0,0,1.559-10.255,1.947,1.947,0,0,0-.967-1.98q-2.441-1.57-4.882-3.14c-.284-.182-.584-.34-.9-.523-.114.163-.208.291-.294.424q-1.033,1.6-2.063,3.2c-.871,1.353-.869,1.353-2.312.611-.906-.466-1.814-.928-2.735-1.4-.089.137-.155.227-.21.324-.725,1.271-1.434,2.552-2.186,3.807-.13.217-.477.487-.661.446-.257-.056-.465-.372-.671-.6-.068-.075-.068-.214-.1-.323l-1.038-3.822c-.677.587-1.293,1.135-1.924,1.664-.67.561-1.279.341-1.446-.519-.21-1.079-.409-2.161-.63-3.336-1.14.722-2.225,1.4-3.292,2.1-.107.07-.139.313-.14.476q-.011,5.4,0,10.793c0,.113.013.225.02.348M8.15,88.14V72.262a1.636,1.636,0,0,0-.216-.032c-1.951,0-3.9-.006-5.854,0-.5,0-.676.2-.677.743q-.005,7.221,0,14.441c0,.563.171.724.731.725,1.22,0,2.439,0,3.659,0H8.15M38,85.878a5.356,5.356,0,0,1-.328.6c-.521.723-1.011,1.475-1.6,2.14a2.125,2.125,0,0,1-2.041.678c-2.4-.407-4.811-.805-7.215-1.213a51.547,51.547,0,0,0-8.272-.991c-.527,0-.83.168-.805.542.032.5.4.512.781.51.814-.006,1.628-.012,2.442,0a.707.707,0,0,1,.715.714.722.722,0,0,1-.649.735,1.926,1.926,0,0,1-.39.011h-6.1c-.153,0-.306.014-.531.025a2.732,2.732,0,0,0,1.562,1.037,13.571,13.571,0,0,0,4.879.455,9.925,9.925,0,0,1,2.139.018,82.622,82.622,0,0,1,11.5,3.174,3.224,3.224,0,0,0,3.514-.678c1.708-1.605,3.447-3.177,5.172-4.764a1.883,1.883,0,0,0,.151-.169L38,85.878M20.541,85.7a1.31,1.31,0,0,0,.026-.187q0-6.294,0-12.588c0-.5-.21-.693-.73-.7-1.415-.005-2.83,0-4.246,0H13.867V88.1h2.445A2.058,2.058,0,0,1,18.7,85.687a16.385,16.385,0,0,0,1.841.011m7.1-29.2a14.782,14.782,0,0,0,1.164,6.9c1.328,2.746,3.185,3.125,5.707,2.669a5.09,5.09,0,0,0,3.408-2.782,6.7,6.7,0,0,1,1.948-2.395,2.739,2.739,0,0,0,.846-1.357c.163-.479-.022-.632-.546-.637-2.585-.027-5.17-.056-7.755-.057a1.754,1.754,0,0,1-1.268-.476,6.96,6.96,0,0,0-3.5-1.863m.65-2.278c.224-.059.347-.09.468-.125a8.489,8.489,0,0,1,3.668-.287,7.487,7.487,0,0,1,5.032,3.224c.1.137.24.34.367.345.837.031,1.676.016,2.624.016,0-.917.047-1.841-.009-2.76a5.107,5.107,0,0,0-4.709-5.208,5.585,5.585,0,0,0-4.8,1.039,10.557,10.557,0,0,0-2.647,3.756M12.323,72.251H9.68V88.122h2.643Zm24.424-5.6a7.543,7.543,0,0,1-5.688.777c-.287.742-.567,1.452-.832,2.167a.838.838,0,0,0-.024.383c.125.983.2,1.977.4,2.944.244,1.153.6,2.282.917,3.448.08-.064.112-.078.127-.1.1-.167.208-.331.294-.505a19.973,19.973,0,0,1,3.851-5.3c.461-.459.886-.954,1.309-1.449a.647.647,0,0,0,.181-.461c-.149-.627-.347-1.242-.539-1.9m3.731,4.23c-.615-.343-1.191-.642-1.742-.98-.273-.167-.421-.1-.61.12-.587.674-1.193,1.331-1.791,2-.363.4-.724.812-1.111,1.246l2.834,1.457,2.42-3.839M35.857,57.374a5.884,5.884,0,0,0-6.4-1.939c.837.587,1.722,1.211,2.61,1.829a.507.507,0,0,0,.26.105c1.148.007,2.3,0,3.53,0M26.809,71.387l.559,2.747c.574-.5,1.077-.935,1.571-1.378a.354.354,0,0,0,.122-.247c-.06-.609-.138-1.216-.217-1.875l-2.035.753" transform="translate(4473 886.587)"/>
    <path id="Path_635" data-name="Path 635" d="M230.62,292.528c.007-.154.006-.232.014-.309a.5.5,0,0,1,.53-.516.494.494,0,0,1,.454.55,2.754,2.754,0,0,1-.017.431.493.493,0,1,1-.981-.067c0-.055,0-.111,0-.09" transform="translate(4272.404 675.199)"/>
    <path id="Path_636" data-name="Path 636" d="M228.121,315.462c.018-.528.169-.751.508-.743.368.008.516.246.473.784a1.113,1.113,0,0,1-.1.413.408.408,0,0,1-.559.219c-.145-.076-.229-.282-.319-.443-.033-.059-.005-.152-.005-.23" transform="translate(4274.602 654.886)"/>
  </g>
</svg>
